<svg width="440" height="406" viewBox="0 0 440 406" fill="none" xmlns="http://www.w3.org/2000/svg">
<path opacity="0.32" d="M242.935 390.07C244.031 398.575 203.537 405.233 154.176 405.233C104.815 405.233 64.7999 398.726 64.7999 390.7C64.7999 382.673 104.808 378.208 154.169 378.208C203.53 378.208 241.803 381.307 242.935 390.07Z" fill="#999999"/>
<path d="M327.724 339.974C325.313 351.056 319.112 359.135 310.097 364.682C306.381 366.973 302.182 368.83 297.573 370.29C294.539 371.253 291.328 372.039 287.958 372.666C287.023 372.84 286.074 373.002 285.115 373.149C284.87 373.19 284.622 373.226 284.374 373.262C284.082 373.307 283.792 373.347 283.498 373.389C283.271 373.419 283.041 373.451 282.814 373.481L282.772 373.487C282.545 373.517 282.315 373.544 282.088 373.575C281.395 373.663 280.694 373.743 279.988 373.818C279.746 373.844 279.502 373.871 279.255 373.892C278.63 373.957 278.001 374.013 277.365 374.069C262.583 375.318 245.528 374.084 227.47 370.975C203.295 366.818 177.309 359.308 152.542 349.922C151.911 349.685 151.28 349.446 150.655 349.204C141.083 345.531 131.825 341.267 122.931 336.455C118.684 334.16 114.518 331.742 110.44 329.204C74.4982 306.83 45.2829 275.202 25.9657 237.783C20.3183 226.846 15.518 215.415 11.6415 203.576C9.50129 197.04 7.64268 190.378 6.08047 183.607C5.65935 181.79 5.26046 179.965 4.8838 178.13C3.40062 170.915 2.26816 163.674 1.59635 156.515C0.497238 144.801 0.631848 133.302 2.48181 122.483C3.41297 117.032 4.77883 111.755 6.64237 106.707C7.39446 104.662 8.23176 102.653 9.15427 100.688C9.62232 99.6932 10.1089 98.7119 10.6165 97.7505C38.0571 45.5795 123.899 38.9386 187.499 67.9684C193.633 70.7685 199.562 73.9003 205.209 77.3575C214.92 83.2956 223.804 90.189 231.497 97.9943C232.306 98.8134 233.103 99.6461 233.885 100.488C239.465 106.485 245.47 111.529 251.781 115.789C263.255 123.532 275.749 128.688 288.563 132.284C300.918 135.755 313.572 137.773 325.893 139.265C367.086 144.258 404.562 143.376 414.839 171.173C433.134 220.642 344.586 262.524 327.724 339.974Z" fill="#E6F3F6"/>
<g opacity="0.3">
<path opacity="0.3" d="M288.563 132.284C266.789 185.122 214.812 222.401 154.307 222.401C81.3077 222.401 20.7208 168.137 10.6177 97.752C10.1101 98.7146 9.62354 99.6958 9.1555 100.689C8.23299 102.654 7.39568 104.664 6.6436 106.708C4.78005 111.756 3.41419 117.034 2.48303 122.484C0.631838 133.304 0.498463 144.803 1.59757 156.517C2.26939 163.675 3.40184 170.915 4.88502 178.131C5.26168 179.966 5.66057 181.791 6.08169 183.609C11.8292 191.607 18.2398 199.159 25.2865 206.22C42.0374 223.004 61.5497 236.184 83.2787 245.392C105.787 254.929 129.683 259.766 154.308 259.766C178.933 259.766 202.83 254.929 225.337 245.392C247.067 236.183 266.581 223.003 283.33 206.22C300.081 189.436 313.236 169.887 322.425 148.114C323.66 145.189 324.817 142.238 325.893 139.265C313.573 137.772 300.918 135.754 288.563 132.284Z" fill="white"/>
</g>
<path d="M275.487 395.903C276.086 391.448 276.92 387.025 277.847 382.627C278.296 380.422 278.839 378.241 279.333 376.046C279.837 373.854 280.439 371.687 280.989 369.506C282.138 365.156 283.411 360.839 284.767 356.547C285.098 355.471 285.44 354.399 285.791 353.33L286.897 350.14C287.652 348.019 288.333 345.872 289.153 343.775C292.269 335.325 295.917 327.068 299.97 319.026L303.149 313.064C303.669 312.066 304.253 311.103 304.836 310.139L306.576 307.245L308.338 304.368C308.914 303.403 309.588 302.496 310.222 301.568C311.501 299.717 312.796 297.881 314.102 296.058C313.027 298.035 311.943 299.999 310.842 301.948C310.312 302.935 309.708 303.876 309.215 304.883L307.697 307.879L306.159 310.858C305.642 311.848 305.124 312.837 304.672 313.861L301.81 319.921C301.316 320.922 300.883 321.951 300.446 322.979L299.102 326.048L297.756 329.114C297.308 330.136 296.917 331.184 296.495 332.218L293.971 338.422L291.61 344.693C290.777 346.765 290.082 348.891 289.314 350.988L288.186 354.145L287.119 357.322C285.639 361.541 284.322 365.814 282.948 370.074C280.292 378.62 277.795 387.221 275.487 395.903Z" fill="#2B93A1"/>
<path d="M355.612 259.768C355.612 259.768 323.066 263.663 311.869 299.506C311.869 299.504 338.474 292.189 355.612 259.768Z" fill="#2B93A1"/>
<path d="M353.077 291.826C353.077 291.826 322.55 290.236 304.071 322.312C304.071 322.312 331.181 320.962 353.077 291.826Z" fill="#2B93A1"/>
<path d="M344.261 329.108C344.261 329.108 310.559 327.76 290.487 365.379C290.487 365.379 331.096 361.18 344.261 329.108Z" fill="#2B93A1"/>
<path d="M301.61 264.069C301.61 264.069 284.117 289.671 295.834 316.673C295.834 316.673 311.904 293.992 301.61 264.069Z" fill="#2B93A1"/>
<path d="M274.418 309.184C274.418 309.184 286.23 325.275 284.192 338.459C282.155 351.643 277.753 364.173 278.614 367.422C278.614 367.422 266.361 350.297 266.219 339.04C266.077 327.787 274.418 309.184 274.418 309.184Z" fill="#2B93A1"/>
<path d="M256.268 395.421C256.197 392.486 255.97 389.554 255.682 386.632C255.549 385.168 255.351 383.714 255.187 382.253C255.017 380.794 254.78 379.344 254.578 377.887C254.142 374.981 253.624 372.088 253.049 369.203C252.911 368.482 252.765 367.761 252.613 367.042L252.123 364.891C251.785 363.461 251.496 362.018 251.112 360.598C249.692 354.888 247.912 349.267 245.853 343.756L244.215 339.658C243.948 338.972 243.638 338.305 243.328 337.638L242.404 335.635L241.466 333.642C241.161 332.973 240.788 332.337 240.443 331.689C239.744 330.396 239.034 329.112 238.316 327.835C238.873 329.195 239.438 330.548 240.013 331.892C240.287 332.571 240.612 333.225 240.859 333.914L241.631 335.968L242.418 338.012C242.682 338.691 242.949 339.371 243.169 340.069L244.594 344.207C244.843 344.893 245.051 345.592 245.262 346.291L245.916 348.38L246.572 350.467C246.791 351.163 246.968 351.872 247.169 352.572L248.365 356.78L249.452 361.021C249.845 362.426 250.145 363.856 250.494 365.272L251.001 367.402L251.466 369.541C252.127 372.386 252.676 375.255 253.266 378.117C254.381 383.856 255.388 389.619 256.268 395.421Z" fill="#2B93A1"/>
<path d="M213.952 301.303C213.952 301.303 234.804 306.161 239.519 330.233C239.519 330.233 222.768 323.578 213.952 301.303Z" fill="#2B93A1"/>
<path d="M213.313 322.299C213.313 322.299 233.245 323.451 242.956 345.598C242.956 345.598 225.452 342.782 213.313 322.299Z" fill="#2B93A1"/>
<path d="M216.38 347.134C216.38 347.134 238.356 348.671 248.706 374.53C248.706 374.53 222.641 368.898 216.38 347.134Z" fill="#2B93A1"/>
<path d="M248.706 307.96C248.706 307.96 258.239 325.834 248.706 342.526C248.706 342.526 239.89 326.651 248.706 307.96Z" fill="#2B93A1"/>
<path d="M263.144 339.197C263.144 339.197 254.327 348.799 254.711 357.504C255.094 366.209 257.059 374.659 256.269 376.707C256.269 376.707 265.444 366.465 266.338 359.168C267.233 351.87 263.144 339.197 263.144 339.197Z" fill="#2B93A1"/>
<path d="M167.867 370.947C167.867 370.947 170.849 375.58 170.253 383.948C170.253 383.948 177.561 387.385 182.184 386.04C186.808 384.695 184.361 371.734 184.361 371.734C184.361 371.734 182.929 370.349 182.332 365.119C181.738 359.888 165.305 355.309 167.867 370.947Z" fill="url(#paint0_linear)"/>
<path d="M221.411 394.558C221.411 396.949 175.027 396.05 175.027 396.05C175.027 396.05 173.387 394.707 173.535 393.959C173.57 393.788 173.426 393.604 173.179 393.318C172.35 392.362 170.369 390.29 170.254 383.947C170.254 383.947 176.965 383.349 179.351 379.314C181.737 375.279 183.677 370.349 185.764 371.843C187.852 373.337 203.215 389.776 220.067 391.567C220.067 391.567 220.922 391.949 221.268 393.317C221.297 393.432 221.323 393.556 221.342 393.686C221.385 393.947 221.411 394.236 221.411 394.558Z" fill="#000101"/>
<path d="M100.069 389.135C100.069 389.135 105.141 379.799 104.78 369.629C104.445 360.142 119.148 360.294 118.571 369.629C117.912 380.301 119.759 387.279 122.123 391.819C124.487 396.358 100.069 389.135 100.069 389.135Z" fill="url(#paint1_linear)"/>
<path d="M150.058 83.8649C148.228 86.2543 139.792 87.3605 131.814 84.5356C123.841 81.7107 118.963 73.3028 120.73 72.1669C122.497 71.0347 122.843 69.1811 122.843 69.1811C124.057 61.6913 121.632 53.6658 121.632 53.6658C121.632 53.6658 145.327 54.8549 144.981 62.2791C144.933 63.2974 144.94 64.2304 144.983 65.0867C145.066 66.741 145.29 68.0996 145.566 69.1922C146.183 71.6707 147.047 72.7719 147.047 72.7719L150.116 75.7589C150.116 75.7589 151.892 81.4768 150.058 83.8649Z" fill="url(#paint2_linear)"/>
<path d="M184.186 370.836C184.186 370.836 176.83 375.502 170.627 377.435C169.409 377.818 168.244 378.093 167.18 378.208C167.18 378.208 151.625 322.647 152.791 299.171C153.953 275.7 133.543 202.119 133.543 202.119L175.963 196.177C175.963 196.177 176.314 199.961 176.883 205.873C178.31 220.836 181.096 249.432 182.953 264.669C185.544 285.919 181.004 362.823 184.186 370.836Z" fill="url(#paint3_linear)"/>
<path opacity="0.58" d="M153.898 214.258C148.862 220.964 160.496 267.758 160.105 287.111C159.782 303.449 168.042 360.139 170.627 377.435C169.409 377.818 168.244 378.093 167.18 378.208C167.18 378.208 151.625 322.647 152.791 299.171C153.953 275.7 133.543 202.119 133.543 202.119L175.963 196.177C175.963 196.177 176.314 199.961 176.883 205.873L176.878 205.878C176.878 205.879 158.93 207.548 153.898 214.258Z" fill="#250C0D"/>
<path d="M147.503 202.22L147.336 202.886C147.289 203.075 147.233 203.3 147.169 203.565C147.082 203.911 146.979 204.325 146.864 204.797C146.777 205.152 146.679 205.543 146.576 205.963L146.47 206.395C146.359 206.835 146.243 207.313 146.118 207.812L145.285 211.195C140.225 231.861 128.236 281.744 128.171 291.004C128.087 302.743 126.136 331.454 123.012 349.418C120.591 363.363 121.299 373.491 121.596 377.48C121.667 378.443 120.315 380.264 119.352 380.301L104.477 379.936C104.366 379.94 102.401 380.319 102.291 380.301C100.284 379.985 98.8257 378.197 98.9369 376.146C99.6457 362.967 101.896 317.973 101.264 288.812C101.141 283.286 101.121 277.297 101.17 271.132C101.399 242.865 103.113 210.978 103.533 203.524C103.584 202.617 104.336 201.912 105.243 201.918L147.503 202.22Z" fill="url(#paint4_linear)"/>
<path d="M147.503 202.22L147.336 202.886L147.17 203.565L146.864 204.797L146.577 205.963L146.471 206.395L146.119 207.812L145.285 211.195L113.285 210.965C113.059 218.606 105.653 251.69 101.169 271.13C101.431 238.873 103.625 201.905 103.625 201.905L147.503 202.22Z" fill="#452122"/>
<path d="M180.12 199.652C179.157 204.076 101.184 203.983 97.6932 203.489C96.0038 203.252 96.3619 199.676 97.1795 196.064C98.0477 192.225 99.4345 188.343 99.4345 188.343C92.4311 190.361 81.3585 183.873 77.2202 175.042C75.2973 170.937 74.8713 166.327 77.0448 161.827C83.8926 147.649 88.2397 93.3403 94.5923 84.2914C99.2085 77.7087 109.843 74.5002 115.294 73.2368C117.335 72.7642 118.649 72.5674 118.649 72.5674C126.264 81.9553 134.395 84.1095 144.172 84.1801C153.945 84.2506 147.047 72.7716 147.047 72.7716C147.047 72.7716 148.558 72.1108 152.284 72.5068C152.95 72.5748 153.686 72.6788 154.495 72.8248C155.716 73.045 157.554 74.077 159.641 75.8266C159.641 75.8266 159.641 75.8266 159.646 75.8266C162.565 78.2717 165.979 82.1223 168.885 87.1238L168.89 87.1324L168.903 87.1547C172.999 94.2138 176.086 103.561 175.378 114.488C174.478 128.394 176.488 152.914 178.181 172.134C178.48 175.54 178.773 178.773 179.035 181.754C179.878 191.286 180.431 198.213 180.12 199.652Z" fill="#FC4D4D"/>
<path d="M148.588 87.6526C145.535 88.9382 135.253 88.9543 127.974 85.2422C121.456 81.9186 118.676 76.2094 116.469 72.9799C118.511 72.5072 120.73 72.1694 120.73 72.1694C128.345 81.5573 134.397 84.1075 144.174 84.178C153.948 84.2486 147.049 72.7696 147.049 72.7696C147.049 72.7696 148.561 72.1088 152.287 72.5048C155.335 81.3519 152.961 85.8114 148.588 87.6526Z" fill="#BF2E40"/>
<path d="M89.3682 168.09C91.5281 164.403 94.3043 161.065 97.5399 158.189C99.1885 156.787 100.962 155.501 102.906 154.472C103.876 153.957 104.884 153.5 105.929 153.123C106.924 152.765 107.92 152.418 108.909 152.039C110.887 151.29 112.871 150.542 114.845 149.766L120.788 147.478C124.745 145.936 128.716 144.409 132.65 142.806L133.279 142.548L133.543 143.146C134.197 144.633 134.899 146.116 135.598 147.592C136.303 149.067 137.035 150.528 137.815 151.961C138.603 153.389 139.416 154.808 140.363 156.123C140.599 156.454 140.856 156.764 141.121 157.068C141.392 157.356 141.696 157.642 141.987 157.93C142.281 158.218 142.573 158.507 142.855 158.807C142.926 158.883 142.996 158.958 143.063 159.04C143.08 159.065 143.095 159.072 143.115 159.123C143.117 159.133 143.116 159.143 143.112 159.154C143.107 159.172 143.075 159.186 143.075 159.182C143.058 159.183 143.052 159.18 143.047 159.179C143.036 159.175 143.029 159.171 143.023 159.167L142.987 159.145L142.863 159.051C142.701 158.922 142.545 158.789 142.391 158.654C142.559 158.773 142.727 158.89 142.899 159L143.028 159.078L143.06 159.094C143.065 159.097 143.071 159.098 143.071 159.098C143.071 159.098 143.073 159.097 143.063 159.098C143.067 159.096 143.036 159.106 143.033 159.123C143.029 159.13 143.029 159.138 143.031 159.144C143.031 159.148 143.007 159.117 142.992 159.103C142.922 159.032 142.845 158.966 142.769 158.898L141.828 158.108C141.512 157.846 141.193 157.596 140.878 157.31C140.578 157.019 140.287 156.719 140.019 156.402C138.932 155.141 138.011 153.763 137.129 152.368C135.376 149.567 133.773 146.69 132.301 143.726L133.194 144.067C129.309 145.829 125.423 147.572 121.489 149.223C117.559 150.878 113.588 152.441 109.526 153.792C108.515 154.136 107.487 154.454 106.469 154.778C105.493 155.07 104.536 155.44 103.6 155.871C101.726 156.731 99.9628 157.861 98.2944 159.124C96.6174 160.38 95.0378 161.784 93.5571 163.295C92.0665 164.797 90.6587 166.392 89.3682 168.09Z" fill="#C12C42"/>
<path d="M114.053 102.599C113.743 106.668 113.86 110.78 113.672 114.858C113.483 118.937 113.352 123.019 113.268 127.1C113.18 131.181 113.157 135.263 113.192 139.342C113.213 143.422 113.345 147.499 113.508 151.572L112.159 151.621C112.078 147.526 112.029 143.433 112.092 139.341C112.141 135.25 112.245 131.16 112.418 127.074C112.584 122.988 112.799 118.903 113.071 114.825C113.344 110.745 113.659 106.671 114.053 102.599Z" fill="#C12C42"/>
<path d="M145.826 155.349C145.714 155.558 145.576 155.743 145.433 155.922C145.287 156.1 145.131 156.268 144.967 156.429C144.803 156.59 144.631 156.742 144.446 156.882C144.262 157.022 144.068 157.151 143.849 157.254C143.948 157.028 144.073 156.831 144.206 156.642C144.34 156.454 144.486 156.278 144.64 156.11C144.794 155.943 144.956 155.782 145.128 155.632C145.302 155.484 145.482 155.34 145.688 155.221L145.826 155.349Z" fill="#FAD5AE"/>
<path opacity="0.5" d="M143.848 157.255C129.788 171.138 100.373 187.813 99.4571 188.329C99.4435 188.338 99.4348 188.343 99.4348 188.343C92.4314 190.361 81.3588 183.873 77.2205 175.042C81.7639 178.076 89.9257 181.407 101.269 177.708C119.492 171.768 133.313 155.387 133.755 153.944C134.032 153.049 133.226 149.393 132.575 146.752C132.575 146.748 132.575 146.748 132.575 146.748C132.177 145.135 131.84 143.903 131.84 143.903C131.84 143.903 132.881 144.92 134.399 146.477C137.078 149.227 141.243 153.656 143.701 157.057C143.754 157.124 143.803 157.192 143.848 157.255Z" fill="#DA1616"/>
<path d="M148.586 152.584C148.044 152.85 147.396 152.765 146.946 152.365C145.014 150.675 140.114 145.948 140.346 141.844C140.382 141.19 145.502 131.029 149.429 127.826C150.601 126.874 152.283 128.04 151.805 129.47C151.125 131.488 150.357 134.462 151.052 136.022C152.167 138.526 161.886 124.928 164.472 127.471C167.026 129.981 171.42 141.338 148.586 152.584Z" fill="url(#paint5_linear)"/>
<path d="M178.182 172.133C176.488 152.915 174.478 128.392 175.378 114.487C176.592 95.7891 166.689 81.7252 159.647 75.8242C160.014 76.0296 181.558 88.1855 183.434 132.76C184.225 151.667 181.55 164.087 178.182 172.133Z" fill="#B73747"/>
<path d="M99.4345 188.343C99.4345 188.343 98.4095 191.434 98.1106 192.495C98.1106 192.495 139.275 169.89 148.794 154.647L146.947 152.365L99.4345 188.343Z" fill="#C32F44"/>
<path d="M139.805 139.39C139.805 139.39 132.624 141.342 131.838 143.901C131.053 146.461 140.211 158.534 141.714 159.279C143.217 160.022 148.793 154.647 148.793 154.647C148.793 154.647 142.139 144.824 139.805 139.39Z" fill="url(#paint6_linear)"/>
<path opacity="0.8" d="M173.176 113.472C173.275 99.647 169.022 87.5072 168.89 87.1323L168.903 87.1546C173 94.2138 176.086 103.561 175.378 114.488C174.478 128.393 176.488 152.914 178.181 172.134C178.48 175.54 178.773 178.773 179.035 181.754C170.498 167.884 173.076 127.519 173.176 113.472Z" fill="#DE617A"/>
<path d="M156.628 28.6091C156.628 28.6091 161.518 25.8337 160.643 22.5881C159.768 19.3425 151.685 6.50481 133.518 9.97438C115.351 13.4439 107.062 23.9133 113.362 43.6666C113.362 43.6666 116.794 52.0225 119.447 55.8596C121.205 58.4011 122.925 60.324 122.925 60.324C122.925 60.324 120.078 30.4862 125.04 27.462C130.002 24.4379 154.086 29.422 156.628 28.6091Z" fill="#302138"/>
<path d="M150.417 61.9164C146.226 65.6446 139.741 67.2791 132.862 65.0172C126.854 63.0412 123.995 59.6446 122.639 56.7553C122.634 56.7467 122.634 56.7417 122.634 56.7417C121.292 53.8748 121.425 51.5102 121.425 51.5102C121.425 51.5102 121.409 51.2441 121.381 50.7702C119.192 51.0882 115.638 50.5302 114.135 47.5407C111.896 43.0763 114.982 37.8843 117.146 37.3238C119.116 36.8152 120.062 38.498 121.282 40.2155C121.489 34.5521 122.217 28.4148 124.284 26.091C127.884 22.0423 151.038 30.9427 155.161 30.0308C154.954 33.6439 154.905 43.0614 155.209 50.9373C155.377 55.2557 153.527 59.1583 150.417 61.9164Z" fill="url(#paint7_linear)"/>
<path d="M132.862 65.0172C139.741 67.2791 146.226 65.6446 150.417 61.9164C153.527 59.1583 155.377 55.2557 155.209 50.9373L144.5 46L121.425 51.5102C121.425 51.5102 121.292 53.8748 122.634 56.7417C122.634 56.7417 122.634 56.7467 122.639 56.7553C123.995 59.6446 126.854 63.0412 132.862 65.0172Z" fill="url(#paint8_linear)"/>
<path d="M132.862 65.0172C139.741 67.2791 146.226 65.6446 150.417 61.9164C153.527 59.1583 155.377 55.2557 155.209 50.9373L144.5 46L121.425 51.5102C121.425 51.5102 121.292 53.8748 122.634 56.7417C122.634 56.7417 122.634 56.7467 122.639 56.7553C123.995 59.6446 126.854 63.0412 132.862 65.0172Z" fill="white"/>
<path d="M121.032 39.8689C121.032 39.8689 122.506 43.0985 123.104 44.5462C123.594 45.7328 124.412 44.8159 124.656 44.0314C125.342 41.8277 124.832 37.1962 124.643 33.9667C124.305 28.1932 129.297 29.5196 132.696 31.2903C136.093 33.0609 150.079 33.5101 155.161 30.0306C160.243 26.5512 155.23 20.3643 155.23 20.3643C155.23 20.3643 126.373 12.7904 121.154 22.8527C115.935 32.9174 121.032 39.8689 121.032 39.8689Z" fill="#302138"/>
<path opacity="0.55" d="M145.566 69.1911C144.152 70.0548 142.393 70.6104 140.211 70.7069C126.524 71.3342 122.766 57.2469 122.639 56.7544C123.995 59.6436 126.854 63.0402 132.862 65.0163C137.224 66.4491 141.422 66.3167 144.983 65.0856C145.066 66.7411 145.291 68.0985 145.566 69.1911Z" fill="#E37E69"/>
<path d="M125.209 396.415C124.911 397.121 124.233 397.588 123.471 397.638C123.21 397.655 122.9 397.674 122.545 397.695C116.822 398.041 99.743 398.951 97.6078 397.576C97.404 397.446 97.2213 397.295 97.0595 397.124C95.149 395.148 95.9221 390.725 99.811 388.015C103.24 385.624 105.7 380.442 106.502 378.581C106.706 378.111 107.082 377.734 107.552 377.527C111.387 375.837 114.351 377.161 115.77 378.097C116.319 378.46 116.655 379.058 116.69 379.716C116.958 384.724 122.154 389.477 124.406 392.429C125.71 394.135 125.587 395.515 125.209 396.415Z" fill="#000101"/>
<path d="M122.544 397.695C116.821 398.042 99.7419 398.951 97.6067 397.576C97.4029 397.446 97.2201 397.295 97.0583 397.125C99.774 395.302 107.317 390.621 111.085 392.107C115.18 393.722 117.906 394.023 122.544 397.695Z" fill="#565656"/>
<path d="M221.411 394.558C221.411 396.949 175.027 396.05 175.027 396.05C175.027 396.05 173.387 394.707 173.536 393.959C173.536 393.959 205.807 394.564 221.343 393.687C221.385 393.947 221.411 394.236 221.411 394.558Z" fill="#565656"/>
<path d="M151.295 94.7192C151.295 94.7192 153.415 116.666 139.255 131.99C139.255 131.99 150.896 191.995 181.744 203.464C180.502 203.002 153.325 193.82 142.088 155.594L134.701 129.237C134.701 129.237 150.09 112.422 147.184 93.2888C147.184 93.2888 171.526 78.3712 192.872 84.9379C192.52 84.8908 171.572 82.0956 151.295 94.7192Z" fill="#33AF8E"/>
<path d="M210.134 96.3159C210.134 96.3159 201.086 95.7306 199.762 78.2825C199.758 78.2813 199.757 78.2801 199.753 78.2764C194.048 74.9639 188.178 72.9606 182.349 71.9336C182.342 71.9312 182.334 71.9299 182.329 71.9299C177.273 71.1454 171.267 70.992 164.505 72.2195C143.103 76.1023 133.828 84.6302 133.828 84.6302C133.828 84.6302 142.007 113.964 117.909 122.429C117.909 122.429 131.108 196.982 181.603 210.367C181.603 210.367 214.294 189.583 212.078 141.236C212.078 141.236 211.437 111.857 210.805 105.277C210.174 98.6978 210.134 96.3159 210.134 96.3159ZM181.744 203.464C181.743 203.464 181.742 203.463 181.74 203.463C181.74 203.463 181.74 203.463 181.739 203.463C181.739 203.463 181.739 203.463 181.738 203.463C181.733 203.46 181.73 203.458 181.725 203.457C181.717 203.454 181.709 203.451 181.701 203.448C180.45 203.01 153.48 193.179 142.39 155.561L134.702 129.237C134.702 129.237 149.964 112.433 147.058 93.2992C147.058 93.2992 171.4 78.3815 192.746 84.9482C192.75 84.9495 192.751 84.9495 192.751 84.9495C193.748 85.2551 194.738 85.609 195.72 86.0136C195.72 86.0136 199.359 100.847 206.185 103.641C206.184 103.641 220.029 179.737 181.744 203.464Z" fill="white"/>
<path d="M118.037 122.42L109.307 120.698C109.307 120.698 125.966 115.319 125.783 102.475C125.603 89.6299 123.936 86.8422 123.936 86.8422L133.955 84.6211C133.955 84.6211 142.134 113.955 118.037 122.42Z" fill="#EDEFEE"/>
<path d="M181.87 203.454C181.869 203.454 181.868 203.453 181.866 203.453C181.866 203.453 181.866 203.453 181.865 203.453C181.865 203.453 181.865 203.453 181.864 203.453C181.859 203.45 181.857 203.448 181.852 203.446C181.843 203.444 181.836 203.44 181.827 203.438C150.712 191.456 139.257 131.99 139.257 131.99C153.418 116.666 151.296 94.7192 151.296 94.7192C171.573 82.0968 192.522 84.892 192.872 84.9378C192.876 84.9391 192.877 84.9391 192.877 84.9391C192.877 84.9391 196.01 99.7132 203.965 103.304C203.964 103.304 218.13 174.855 181.87 203.454Z" fill="#37BA9B"/>
<path d="M182.457 71.9197C177.401 71.1352 171.394 70.9818 164.633 72.2093C143.231 76.0921 133.955 84.62 133.955 84.62L123.936 86.8411C123.936 86.8423 152.654 66.6745 182.457 71.9197Z" fill="#E2E2E2"/>
<path d="M181.731 210.359L171.789 210.057C129.273 199.61 111.244 128.793 109.456 121.335C109.356 120.918 109.307 120.699 109.307 120.699L118.037 122.422C118.037 122.42 131.236 196.973 181.731 210.359Z" fill="#E2E2E2"/>
<path d="M206.311 103.631L203.964 103.304C196.011 99.7131 192.876 84.939 192.876 84.939C193.873 85.2446 194.863 85.5985 195.845 86.0031C195.846 86.0031 199.484 100.837 206.311 103.631Z" fill="#249979"/>
<path opacity="0.57" d="M174.892 119.629C174.892 119.629 183 115.019 192.218 114.803C192.218 114.803 194.195 122.931 195.331 132.778C195.331 132.778 197.555 131.343 200.785 127.786C200.785 127.786 202.654 139.622 201.513 145.067C201.513 145.067 199.883 147.918 197.041 150.179C197.041 150.179 197.323 159.02 196.523 165.121C196.523 165.121 190.259 169.688 184.547 172.558C184.547 172.558 184.428 164.581 183.905 158.972C183.905 158.972 175.717 162.517 167.791 164.388C167.791 164.388 162.508 153.687 160.889 143.876C160.889 143.876 173.648 141.638 180.46 139.172C180.457 139.171 178.358 126.864 174.892 119.629Z" fill="#005C9A"/>
<path d="M181.744 203.464C218.004 174.865 203.963 103.306 203.963 103.306L206.311 103.632C206.311 103.631 220.029 179.736 181.744 203.464Z" fill="#239979"/>
<path d="M175.961 119.858C175.961 119.858 184.068 115.247 193.286 115.032C193.286 115.032 195.263 123.16 196.399 133.007C196.399 133.007 198.623 131.572 201.853 128.014C201.853 128.014 203.723 139.851 202.581 145.295C202.581 145.295 200.951 148.146 198.11 150.408C198.11 150.408 198.391 159.249 197.591 165.349C197.591 165.349 191.327 169.916 185.616 172.787C185.616 172.787 185.496 164.81 184.973 159.201C184.973 159.201 176.786 162.746 168.86 164.617C168.86 164.617 163.577 153.916 161.958 144.105C161.958 144.105 174.716 141.867 181.528 139.401C181.527 139.401 179.426 127.094 175.961 119.858Z" fill="white"/>
<path d="M274.258 104.024L260.394 100.531C259.756 100.37 259.393 99.5793 259.582 98.7639C259.771 97.9485 260.442 97.4177 261.079 97.5785C261.102 97.5847 261.13 97.5922 261.153 97.6008L274.724 102.231C275.106 102.361 275.302 102.866 275.161 103.357C275.025 103.827 274.628 104.116 274.258 104.024Z" fill="#55AA11"/>
<path d="M258.983 102.406C261.164 102.271 262.822 100.389 262.687 98.2037C262.552 96.0183 260.674 94.3566 258.493 94.4921C256.312 94.6277 254.653 96.5091 254.788 98.6945C254.924 100.88 256.801 102.542 258.983 102.406Z" fill="#55AA11"/>
<path d="M261.953 97.8958C262.101 100.08 260.454 101.972 258.274 102.119C257.83 102.149 257.4 102.102 256.991 101.993C257.595 102.291 258.283 102.442 259.003 102.392C261.183 102.244 262.83 100.353 262.682 98.1693C262.565 96.4295 261.342 95.0326 259.749 94.6094C260.973 95.2144 261.853 96.4345 261.953 97.8958Z" fill="#458909"/>
<path d="M302.723 82.4276L301.809 69.8102C301.767 69.2298 302.329 68.7064 303.064 68.6396C303.799 68.5728 304.428 68.9885 304.47 69.5689C304.472 69.5911 304.473 69.6147 304.473 69.6369L304.353 82.3211C304.349 82.6775 303.981 82.9819 303.531 82.9992C303.1 83.0166 302.749 82.7629 302.723 82.4276Z" fill="#55AA11"/>
<path d="M304.12 71.1812C305.968 70.6246 307.015 68.6725 306.46 66.821C305.904 64.9695 303.956 63.9198 302.108 64.4764C300.26 65.0329 299.213 66.9851 299.768 68.8366C300.324 70.6881 302.272 71.7378 304.12 71.1812Z" fill="#55AA11"/>
<path d="M304.447 70.3915C302.66 71.1203 300.621 70.2591 299.894 68.4686C299.745 68.1036 299.666 67.7286 299.644 67.3562C299.561 67.9464 299.626 68.5651 299.866 69.1578C300.594 70.9483 302.633 71.8095 304.42 71.0807C305.843 70.5004 306.675 69.0873 306.588 67.6309C306.42 68.8262 305.644 69.9027 304.447 70.3915Z" fill="#458909"/>
<path d="M283.178 138.039L273.939 153.062C273.514 153.753 272.452 153.886 271.566 153.362C270.681 152.837 270.307 151.851 270.731 151.16C270.747 151.134 270.767 151.106 270.784 151.081L281.247 136.827C281.541 136.426 282.205 136.383 282.73 136.73C283.233 137.066 283.423 137.64 283.178 138.039Z" fill="#55AA11"/>
<path d="M275.71 154.626C275.921 151.937 273.916 149.586 271.232 149.375C268.548 149.165 266.202 151.174 265.992 153.863C265.782 156.552 267.787 158.902 270.471 159.113C273.154 159.324 275.5 157.315 275.71 154.626Z" fill="#55AA11"/>
<path d="M271.429 150.25C274.045 150.886 275.65 153.526 275.016 156.147C274.886 156.682 274.67 157.17 274.392 157.61C274.966 157.009 275.397 156.257 275.607 155.39C276.242 152.769 274.636 150.128 272.021 149.492C269.938 148.986 267.847 149.906 266.759 151.623C267.921 150.408 269.678 149.824 271.429 150.25Z" fill="#458909"/>
<path d="M316.134 145.224L320.707 156.811C320.917 157.343 320.544 158.003 319.872 158.282C319.201 158.562 318.487 158.358 318.277 157.824C318.269 157.805 318.261 157.781 318.255 157.761L314.633 145.806C314.53 145.469 314.787 145.075 315.206 144.925C315.606 144.781 316.011 144.918 316.134 145.224Z" fill="#55AA11"/>
<path d="M321.857 162.011C323.484 161.027 324.008 158.908 323.026 157.277C322.044 155.646 319.929 155.121 318.301 156.105C316.674 157.089 316.15 159.208 317.132 160.839C318.114 162.47 320.229 162.995 321.857 162.011Z" fill="#55AA11"/>
<path d="M318.057 157.045C319.522 155.832 321.692 156.038 322.902 157.507C323.149 157.806 323.333 158.135 323.464 158.478C323.368 157.899 323.126 157.336 322.726 156.851C321.515 155.383 319.345 155.177 317.881 156.389C316.714 157.356 316.349 158.93 316.858 160.272C316.664 159.099 317.077 157.857 318.057 157.045Z" fill="#458909"/>
<path d="M342.564 118.896C342.564 136.968 326.266 149.031 306.162 149.031C286.058 149.031 269.761 136.968 269.761 118.896C269.761 100.824 286.058 81.0017 306.162 81.0017C326.266 81.0017 342.564 100.824 342.564 118.896Z" fill="#82CB0F"/>
<path d="M311.868 85.9338C317.898 85.9338 323.63 87.4781 328.816 90.1273C322.6 84.6 314.727 81.0017 306.164 81.0017C286.06 81.0017 269.762 100.826 269.762 118.896C269.762 120.667 269.92 122.378 270.222 124.027C273.232 104.879 290.731 85.9338 311.868 85.9338Z" fill="#C1E649"/>
<path d="M332.552 93.9014C336.753 100.183 339.223 107.473 339.223 114.499C339.223 132.522 322.97 144.552 302.921 144.552C290.701 144.552 279.891 140.082 273.312 132.512C279.175 142.77 291.681 149.031 306.164 149.031C326.267 149.031 342.565 136.968 342.565 118.896C342.564 110.162 338.756 101.019 332.552 93.9014Z" fill="#56BD10"/>
<path d="M317.623 88.239C317.623 89.9329 315.454 91.3064 312.78 91.3064C310.107 91.3064 307.938 89.9329 307.938 88.239C307.938 86.545 310.107 84.1248 312.78 84.1248C315.454 84.1248 317.623 86.545 317.623 88.239Z" fill="#55AA11"/>
<path d="M286.904 102.4C286.391 103.074 285.114 102.959 284.052 102.144C282.989 101.33 282.545 100.125 283.059 99.4518C283.572 98.7787 285.167 98.478 286.229 99.2922C287.291 100.108 287.418 101.729 286.904 102.4Z" fill="#55AA11"/>
<path d="M274.166 114.547C273.934 114.851 273.354 114.799 272.873 114.43C272.391 114.062 272.19 113.515 272.422 113.21C272.654 112.906 273.378 112.768 273.86 113.137C274.341 113.507 274.398 114.242 274.166 114.547Z" fill="#55AA11"/>
<path d="M307.938 92.0899C307.938 92.9363 306.854 93.623 305.516 93.623C304.179 93.623 303.094 92.9363 303.094 92.0899C303.094 91.2436 304.179 90.0334 305.516 90.0334C306.854 90.0334 307.938 91.2436 307.938 92.0899Z" fill="#55AA11"/>
<path d="M287.275 93.0684C286.852 93.3938 286.092 93.1129 285.578 92.4422C285.064 91.7716 284.992 90.9636 285.415 90.6382C285.839 90.3127 286.86 90.3919 287.374 91.0638C287.887 91.7345 287.698 92.7429 287.275 93.0684Z" fill="#55AA11"/>
<path d="M320.735 89.7075C320.989 89.9674 320.863 90.5044 320.453 90.9065C320.043 91.3099 319.506 91.4262 319.252 91.1664C318.997 90.9065 318.966 90.2099 319.375 89.8065C319.785 89.4043 320.48 89.4489 320.735 89.7075Z" fill="#55AA11"/>
<path d="M319.545 85.3768C319.705 85.5389 319.626 85.8767 319.369 86.1292C319.112 86.3816 318.775 86.4546 318.615 86.2925C318.456 86.1304 318.436 85.6924 318.693 85.4399C318.95 85.1863 319.386 85.2135 319.545 85.3768Z" fill="#55AA11"/>
<path d="M310.992 93.7081C311.151 93.8702 311.072 94.208 310.816 94.4605C310.559 94.7129 310.222 94.7859 310.062 94.6238C309.903 94.4617 309.883 94.0237 310.14 93.7712C310.397 93.5176 310.833 93.5448 310.992 93.7081Z" fill="#55AA11"/>
<path d="M275.688 107.184C275.848 107.346 275.769 107.684 275.512 107.936C275.255 108.189 274.918 108.262 274.759 108.1C274.599 107.938 274.579 107.5 274.836 107.247C275.093 106.994 275.529 107.021 275.688 107.184Z" fill="#55AA11"/>
<path d="M315.545 94.0087C315.529 94.3725 315.051 94.646 314.478 94.6212C313.905 94.5965 313.452 94.2822 313.468 93.9184C313.484 93.5546 313.971 93.056 314.545 93.0807C315.119 93.1055 315.56 93.6449 315.545 94.0087Z" fill="#55AA11"/>
<path d="M305.658 85.2779C306.226 86.0896 306.279 87.035 305.775 87.3889C305.272 87.7428 304.402 87.3728 303.834 86.5611C303.266 85.7494 303.213 84.804 303.717 84.4501C304.22 84.0962 305.089 84.4662 305.658 85.2779Z" fill="#55AA11"/>
<path d="M294.225 90.6383C294.225 91.7593 294.065 93.0796 292.945 93.0796C291.826 93.0796 290.171 91.7593 290.171 90.6383C290.171 89.5172 291.079 88.9641 292.197 88.9641C293.316 88.9641 294.225 89.5172 294.225 90.6383Z" fill="#55AA11"/>
<path d="M307.625 82.7401C307.625 83.2288 307.555 83.8054 307.067 83.8054C306.58 83.8054 305.858 83.23 305.858 82.7401C305.858 82.2513 306.254 82.01 306.743 82.01C307.232 82.01 307.625 82.2513 307.625 82.7401Z" fill="#55AA11"/>
<path d="M295.854 94.5036C295.854 94.8538 295.803 95.2671 295.454 95.2671C295.104 95.2671 294.587 94.855 294.587 94.5036C294.587 94.1535 294.871 93.9802 295.22 93.9802C295.57 93.9802 295.854 94.1522 295.854 94.5036Z" fill="#55AA11"/>
<path d="M281.99 96.5244C281.99 96.8746 281.94 97.2878 281.59 97.2878C281.241 97.2878 280.723 96.8758 280.723 96.5244C280.723 96.1742 281.007 96.001 281.357 96.001C281.706 96.001 281.99 96.1742 281.99 96.5244Z" fill="#55AA11"/>
<path d="M280.116 103.038C280.116 103.388 280.065 103.801 279.716 103.801C279.366 103.801 278.849 103.389 278.849 103.038C278.849 102.687 279.133 102.514 279.482 102.514C279.832 102.514 280.116 102.687 280.116 103.038Z" fill="#55AA11"/>
<path d="M275.131 119.373C275.131 120.546 274.037 121.376 273.429 121.376C272.82 121.376 272.326 120.426 272.326 119.253C272.326 118.08 273.509 116.611 274.118 116.611C274.726 116.611 275.131 118.2 275.131 119.373Z" fill="#55AA11"/>
<path d="M277.699 101.339C277.616 101.773 277.152 102.004 276.927 101.96C276.701 101.917 276.586 101.53 276.669 101.095C276.752 100.661 277.294 100.201 277.52 100.244C277.745 100.287 277.782 100.905 277.699 101.339Z" fill="#55AA11"/>
<path d="M321.993 87.2393L328.205 68.0812C328.49 67.2002 329.633 66.7659 330.756 67.1087C331.88 67.4526 332.559 68.445 332.274 69.3248C332.263 69.3582 332.249 69.3941 332.237 69.4262L324.462 88.0622C324.243 88.5868 323.518 88.8133 322.843 88.5683C322.195 88.3344 321.829 87.7491 321.993 87.2393Z" fill="#55AA11"/>
<path d="M331.292 71.5222C334.365 71.5222 336.856 69.0265 336.856 65.9479C336.856 62.8693 334.365 60.3735 331.292 60.3735C328.22 60.3735 325.729 62.8693 325.729 65.9479C325.729 69.0265 328.22 71.5222 331.292 71.5222Z" fill="#55AA11"/>
<path d="M331.746 70.5235C328.673 70.5235 326.182 68.0277 326.182 64.9492C326.182 64.3218 326.291 63.7205 326.481 63.1587C326.006 63.9803 325.729 64.9306 325.729 65.9489C325.729 69.0275 328.22 71.5233 331.292 71.5233C333.739 71.5233 335.812 69.9382 336.557 67.7394C335.594 69.4024 333.803 70.5235 331.746 70.5235Z" fill="#458909"/>
<path d="M337.151 115.251L357.255 115.365C358.178 115.37 358.939 116.329 358.954 117.506C358.969 118.683 358.232 119.633 357.307 119.628C357.272 119.628 357.233 119.626 357.199 119.623L337.116 117.857C336.551 117.808 336.116 117.184 336.143 116.465C336.17 115.777 336.616 115.25 337.151 115.251Z" fill="#55AA11"/>
<path d="M365.713 118.563C366.209 115.524 364.153 112.659 361.12 112.162C358.088 111.665 355.228 113.725 354.732 116.763C354.236 119.802 356.292 122.667 359.325 123.164C362.357 123.661 365.217 121.601 365.713 118.563Z" fill="#55AA11"/>
<path d="M356.007 119.487C355.075 116.553 356.691 113.418 359.619 112.484C360.216 112.293 360.82 112.214 361.412 112.225C360.488 112.021 359.498 112.046 358.531 112.354C355.603 113.288 353.987 116.425 354.919 119.357C355.661 121.693 357.798 123.191 360.116 123.235C358.241 122.822 356.631 121.451 356.007 119.487Z" fill="#458909"/>
<path d="M328.371 134.198L345.252 151.166C346.027 151.946 345.868 153.394 344.896 154.401C343.924 155.407 342.508 155.59 341.731 154.81C341.701 154.781 341.671 154.746 341.645 154.715L326.163 136.371C325.727 135.855 325.88 134.963 326.505 134.379C327.104 133.82 327.922 133.749 328.371 134.198Z" fill="#55AA11"/>
<path d="M347.873 161.927C351.351 160.802 353.259 157.065 352.136 153.581C351.013 150.096 347.283 148.184 343.805 149.31C340.328 150.435 338.419 154.172 339.543 157.657C340.666 161.141 344.396 163.053 347.873 161.927Z" fill="#55AA11"/>
<path d="M340.753 153.599C342.418 150.34 346.404 149.049 349.658 150.716C350.321 151.056 350.898 151.496 351.388 152.003C350.778 151.054 349.923 150.245 348.847 149.694C345.594 148.026 341.606 149.317 339.942 152.577C338.617 155.173 339.167 158.231 341.088 160.212C339.853 158.29 339.638 155.782 340.753 153.599Z" fill="#458909"/>
<path d="M285.892 88.6877L274.82 71.8732C274.312 71.0999 274.685 69.9343 275.654 69.2686C276.623 68.6029 277.821 68.6895 278.33 69.4616C278.349 69.49 278.37 69.5247 278.386 69.5544L288.075 87.2672C288.348 87.7659 288.073 88.4749 287.46 88.8511C286.872 89.2136 286.187 89.1344 285.892 88.6877Z" fill="#55AA11"/>
<path d="M280.429 69.626C281.255 66.6606 279.525 63.5862 276.565 62.7589C273.606 61.9317 270.537 63.665 269.712 66.6303C268.886 69.5956 270.616 72.6701 273.575 73.4973C276.535 74.3245 279.603 72.5913 280.429 69.626Z" fill="#55AA11"/>
<path d="M278.934 70.6252C277.017 73.0319 273.518 73.4253 271.116 71.5062C270.626 71.1152 270.225 70.6549 269.905 70.155C270.25 71.0397 270.819 71.8489 271.613 72.4837C274.015 74.4041 277.515 74.0094 279.432 71.6027C280.958 69.686 281.015 67.0752 279.764 65.1189C280.46 66.9118 280.217 69.0141 278.934 70.6252Z" fill="#458909"/>
<path d="M273.526 126.506L254.72 133.628C253.856 133.956 252.802 133.334 252.368 132.241C251.933 131.147 252.28 129.995 253.144 129.668C253.176 129.656 253.214 129.644 253.247 129.634L272.625 124.061C273.17 123.904 273.8 124.329 274.031 125.01C274.254 125.662 274.026 126.315 273.526 126.506Z" fill="#55AA11"/>
<path d="M254.117 137.24C256.706 135.581 257.462 132.134 255.806 129.541C254.151 126.948 250.711 126.19 248.122 127.849C245.534 129.507 244.778 132.954 246.433 135.548C248.089 138.141 251.529 138.899 254.117 137.24Z" fill="#55AA11"/>
<path d="M254.41 129.332C256.332 131.735 255.945 135.243 253.547 137.168C253.058 137.56 252.523 137.851 251.965 138.054C252.902 137.912 253.816 137.534 254.608 136.897C257.006 134.972 257.392 131.464 255.471 129.061C253.941 127.148 251.41 126.518 249.232 127.31C251.129 127.023 253.123 127.723 254.41 129.332Z" fill="#458909"/>
<path d="M335.441 101.411L349.305 97.9179C349.942 97.757 350.306 96.9663 350.117 96.1509C349.928 95.3355 349.257 94.8046 348.62 94.9655C348.596 94.9717 348.569 94.9791 348.546 94.9878L334.975 99.618C334.594 99.7479 334.397 100.253 334.538 100.744C334.674 101.214 335.072 101.503 335.441 101.411Z" fill="#55AA11"/>
<path d="M352.98 99.2335C354.866 98.1282 355.501 95.6999 354.398 93.8097C353.295 91.9194 350.871 91.2831 348.985 92.3884C347.098 93.4937 346.463 95.922 347.566 97.8122C348.669 99.7024 351.093 100.339 352.98 99.2335Z" fill="#55AA11"/>
<path d="M347.746 95.2835C347.598 97.4675 349.245 99.3594 351.425 99.5066C351.869 99.5363 352.299 99.4893 352.708 99.3804C352.104 99.6786 351.416 99.8296 350.696 99.7801C348.516 99.6316 346.869 97.7409 347.017 95.557C347.134 93.8172 348.357 92.4202 349.95 91.9971C348.725 92.6009 347.846 93.8209 347.746 95.2835Z" fill="#458909"/>
<path d="M300.662 142.798L299.923 162.928C299.89 163.853 298.909 164.584 297.735 164.562C296.56 164.54 295.635 163.773 295.669 162.847C295.67 162.812 295.674 162.773 295.677 162.739L298.062 142.683C298.129 142.119 298.765 141.702 299.481 141.751C300.168 141.8 300.68 142.262 300.662 142.798Z" fill="#55AA11"/>
<path d="M302.921 167.268C303.718 164.295 301.958 161.237 298.991 160.439C296.023 159.64 292.972 161.403 292.175 164.376C291.378 167.35 293.137 170.407 296.105 171.206C299.072 172.005 302.124 170.242 302.921 167.268Z" fill="#55AA11"/>
<path d="M295.85 161.55C298.806 160.708 301.883 162.424 302.725 165.385C302.897 165.989 302.958 166.596 302.928 167.189C303.161 166.268 303.166 165.278 302.888 164.3C302.047 161.339 298.969 159.621 296.014 160.465C293.661 161.137 292.1 163.229 291.984 165.548C292.456 163.685 293.872 162.114 295.85 161.55Z" fill="#458909"/>
<path d="M292.941 122.792C292.988 124.766 293.59 130.65 299.033 132.718H299.037C299.853 133.03 300.778 133.255 301.826 133.366C308.057 134.036 312.072 132.418 314.516 129.61C315.516 128.466 316.25 127.127 316.766 125.662C317.03 124.916 316.699 124.09 315.985 123.751C315.115 123.337 313.802 122.764 312.167 122.212C311.012 121.825 309.696 121.442 308.262 121.134C307.655 121.004 307.028 120.886 306.386 120.787C304.952 120.561 303.431 120.428 301.859 120.428C301.232 120.428 300.598 120.451 299.955 120.503C298.565 120.606 297.15 120.831 295.723 121.206C294.995 121.399 294.261 121.633 293.532 121.909C293.166 122.046 292.932 122.405 292.941 122.792Z" fill="#37305E"/>
<path d="M299.038 132.718C299.853 133.03 300.779 133.255 301.828 133.366C308.058 134.036 312.073 132.418 314.517 129.61C313.256 128.252 311.132 126.819 307.939 127.471C304.432 128.186 300.693 130.633 299.038 132.718Z" fill="#FE3652"/>
<path d="M308.263 121.134C308.637 123.12 309.335 125.718 310.375 125.146C311.258 124.659 311.828 123.333 312.168 122.212C311.013 121.824 309.697 121.442 308.263 121.134Z" fill="white"/>
<path d="M301.86 120.428C302.505 122.216 304.031 125.998 305.135 125.067C306.163 124.202 306.36 121.976 306.388 120.787C304.952 120.561 303.432 120.428 301.86 120.428Z" fill="white"/>
<path d="M295.723 121.205C296.46 123.112 297.745 125.88 298.702 125.067C299.817 124.127 299.95 121.585 299.955 120.502C298.565 120.605 297.15 120.83 295.723 121.205Z" fill="white"/>
<path d="M310.446 113.997C311.623 113.997 312.578 111.438 312.578 108.282C312.578 105.125 311.623 102.566 310.446 102.566C309.269 102.566 308.314 105.125 308.314 108.282C308.314 111.438 309.269 113.997 310.446 113.997Z" fill="#0B1843"/>
<path d="M306.937 103.634C307.586 103.202 308.155 102.916 308.722 102.66C309.287 102.413 309.832 102.204 310.381 102.023C310.933 101.846 311.487 101.694 312.078 101.554C312.683 101.434 313.288 101.288 314.082 101.25C313.865 101.996 313.429 102.608 312.89 103.072C312.355 103.547 311.724 103.896 311.055 104.108C310.387 104.324 309.682 104.417 308.979 104.359C308.281 104.292 307.568 104.109 306.937 103.634Z" fill="#0F3145"/>
<path d="M311.035 107.622C311.035 108.403 310.516 109.035 309.875 109.035C309.234 109.035 308.716 108.403 308.716 107.622C308.716 106.841 309.234 106.209 309.875 106.209C310.516 106.209 311.035 106.841 311.035 107.622Z" fill="white"/>
<path d="M295.283 114.168C296.461 114.168 297.415 111.609 297.415 108.452C297.415 105.296 296.461 102.737 295.283 102.737C294.106 102.737 293.152 105.296 293.152 108.452C293.152 111.609 294.106 114.168 295.283 114.168Z" fill="#0B1843"/>
<path d="M298.793 103.805C298.144 103.373 297.574 103.087 297.008 102.831C296.443 102.584 295.897 102.375 295.349 102.194C294.797 102.017 294.243 101.865 293.652 101.725C293.047 101.605 292.442 101.459 291.648 101.421C291.865 102.167 292.301 102.779 292.84 103.243C293.374 103.718 294.005 104.067 294.675 104.279C295.343 104.495 296.048 104.588 296.751 104.53C297.449 104.463 298.162 104.28 298.793 103.805Z" fill="#0F3145"/>
<path d="M294.573 108.108C294.573 108.889 295.092 109.521 295.733 109.521C296.374 109.521 296.893 108.889 296.893 108.108C296.893 107.328 296.374 106.695 295.733 106.695C295.093 106.695 294.573 107.328 294.573 108.108Z" fill="white"/>
<path d="M353.194 25.7435L345.169 23.7217C344.8 23.6289 344.59 23.171 344.7 22.6984C344.81 22.2269 345.198 21.9188 345.566 22.0116C345.579 22.0153 345.595 22.0203 345.609 22.024L353.463 24.7041C353.684 24.7796 353.798 25.0716 353.716 25.3562C353.637 25.6297 353.408 25.7967 353.194 25.7435Z" fill="#55AA11"/>
<path d="M345.825 24.1365C346.719 23.2407 346.719 21.7881 345.825 20.8923C344.931 19.9964 343.481 19.9964 342.587 20.8923C341.693 21.7881 341.693 23.2407 342.587 24.1365C343.481 25.0324 344.931 25.0324 345.825 24.1365Z" fill="#55AA11"/>
<path d="M346.072 22.197C346.157 23.4616 345.204 24.5554 343.943 24.642C343.686 24.6593 343.437 24.6321 343.201 24.569C343.55 24.7423 343.948 24.8289 344.365 24.8004C345.628 24.715 346.581 23.62 346.494 22.3554C346.427 21.3482 345.719 20.5402 344.796 20.2952C345.505 20.6453 346.014 21.3506 346.072 22.197Z" fill="#458909"/>
<path d="M369.67 13.2433L369.141 5.9404C369.117 5.60508 369.443 5.30192 369.867 5.26233C370.292 5.22397 370.658 5.46402 370.681 5.80058C370.682 5.81295 370.682 5.8278 370.682 5.84017L370.613 13.1815C370.611 13.3881 370.398 13.5638 370.138 13.5737C369.887 13.5848 369.683 13.4376 369.67 13.2433Z" fill="#55AA11"/>
<path d="M371.77 5.59079C372.204 4.55929 371.721 3.37062 370.691 2.93585C369.662 2.50108 368.475 2.98484 368.042 4.01634C367.608 5.04785 368.09 6.23648 369.12 6.67126C370.149 7.10603 371.336 6.62229 371.77 5.59079Z" fill="#55AA11"/>
<path d="M370.666 6.27828C369.631 6.70022 368.452 6.20156 368.031 5.16589C367.946 4.9543 367.899 4.73776 367.886 4.52246C367.838 4.86397 367.875 5.22281 368.015 5.56556C368.436 6.60247 369.615 7.09989 370.65 6.67795C371.474 6.34262 371.955 5.52349 371.905 4.68084C371.808 5.37129 371.359 5.99492 370.666 6.27828Z" fill="#458909"/>
<path d="M358.356 45.4323L353.009 54.1272C352.763 54.5269 352.148 54.6049 351.636 54.3005C351.123 53.9961 350.907 53.4257 351.153 53.026C351.161 53.0111 351.174 52.9951 351.184 52.9802L357.24 44.7295C357.41 44.4968 357.794 44.4721 358.098 44.6738C358.388 44.868 358.498 45.1997 358.356 45.4323Z" fill="#55AA11"/>
<path d="M353.808 55.943C354.435 54.514 353.787 52.8466 352.361 52.2186C350.934 51.5907 349.27 52.2401 348.644 53.669C348.017 55.098 348.665 56.7654 350.091 57.3933C351.517 58.0212 353.181 57.3719 353.808 55.943Z" fill="#55AA11"/>
<path d="M351.557 52.4988C353.071 52.8675 353.999 54.3957 353.633 55.9127C353.557 56.2221 353.433 56.5054 353.272 56.7591C353.604 56.4114 353.854 55.9758 353.976 55.4747C354.344 53.9577 353.414 52.4295 351.9 52.0608C350.695 51.7675 349.484 52.2996 348.854 53.2944C349.526 52.5904 350.543 52.2526 351.557 52.4988Z" fill="#458909"/>
<path d="M377.431 49.5912L380.078 56.2977C380.2 56.6058 379.983 56.9869 379.595 57.149C379.206 57.3111 378.793 57.1923 378.671 56.8842C378.666 56.8731 378.663 56.8595 378.659 56.8471L376.562 49.9278C376.503 49.7335 376.651 49.5046 376.893 49.418C377.125 49.3338 377.36 49.413 377.431 49.5912Z" fill="#55AA11"/>
<path d="M380.502 59.4174C381.511 58.9775 381.972 57.8016 381.533 56.7909C381.094 55.7802 379.921 55.3175 378.912 55.7574C377.903 56.1973 377.441 57.3733 377.88 58.384C378.319 59.3947 379.493 59.8574 380.502 59.4174Z" fill="#55AA11"/>
<path d="M378.544 56.4328C379.392 55.7312 380.647 55.85 381.348 56.7C381.492 56.8733 381.598 57.0638 381.673 57.263C381.618 56.9277 381.477 56.6023 381.246 56.3214C380.544 55.4713 379.29 55.3526 378.441 56.0541C377.766 56.6134 377.555 57.5241 377.85 58.3012C377.737 57.6219 377.977 56.9017 378.544 56.4328Z" fill="#458909"/>
<path d="M392.729 34.3527C392.729 44.8121 383.297 51.7946 371.661 51.7946C360.025 51.7946 350.593 44.8121 350.593 34.3527C350.593 23.8933 360.025 12.4204 371.661 12.4204C383.297 12.4204 392.729 23.8933 392.729 34.3527Z" fill="#82CB0F"/>
<path d="M374.961 15.2743C378.451 15.2743 381.77 16.1689 384.77 17.7008C381.172 14.5022 376.616 12.4185 371.659 12.4185C360.023 12.4185 350.591 23.8913 350.591 34.3507C350.591 35.3753 350.682 36.3664 350.856 37.3204C352.6 26.2398 362.728 15.2743 374.961 15.2743Z" fill="#C1E649"/>
<path d="M386.933 19.8857C389.365 23.5211 390.794 27.7405 390.794 31.8065C390.794 42.2375 381.387 49.2014 369.782 49.2014C362.71 49.2014 356.453 46.6153 352.646 42.2325C356.038 48.1694 363.278 51.7937 371.659 51.7937C383.295 51.7937 392.727 44.8112 392.727 34.3518C392.729 29.2959 390.524 24.0049 386.933 19.8857Z" fill="#56BD10"/>
<path d="M378.292 16.608C378.292 17.588 377.038 18.3836 375.489 18.3836C373.941 18.3836 372.686 17.5892 372.686 16.608C372.686 15.6268 373.94 14.2273 375.489 14.2273C377.038 14.2273 378.292 15.628 378.292 16.608Z" fill="#55AA11"/>
<path d="M360.514 24.8042C360.216 25.194 359.478 25.1272 358.863 24.6557C358.248 24.1843 357.991 23.4864 358.287 23.0979C358.585 22.7081 359.507 22.5336 360.122 23.0051C360.737 23.4765 360.81 24.4157 360.514 24.8042Z" fill="#55AA11"/>
<path d="M353.14 31.8351C353.005 32.012 352.67 31.9811 352.391 31.7682C352.112 31.5542 351.996 31.2386 352.131 31.0617C352.265 30.8848 352.684 30.8068 352.962 31.0196C353.241 31.2325 353.274 31.6581 353.14 31.8351Z" fill="#55AA11"/>
<path d="M372.687 18.8366C372.687 19.3266 372.059 19.7238 371.285 19.7238C370.511 19.7238 369.883 19.3266 369.883 18.8366C369.883 18.3466 370.511 17.6462 371.285 17.6462C372.059 17.6462 372.687 18.3466 372.687 18.8366Z" fill="#55AA11"/>
<path d="M360.727 19.403C360.483 19.5911 360.043 19.429 359.746 19.0405C359.448 18.6519 359.406 18.1842 359.652 17.9961C359.896 17.808 360.488 17.8538 360.785 18.2424C361.082 18.6309 360.972 19.2149 360.727 19.403Z" fill="#55AA11"/>
<path d="M380.094 17.458C380.241 17.6078 380.168 17.9196 379.931 18.1522C379.694 18.3861 379.383 18.4529 379.236 18.3032C379.089 18.1534 379.07 17.7488 379.307 17.5162C379.544 17.2823 379.947 17.3083 380.094 17.458Z" fill="#55AA11"/>
<path d="M379.406 14.9511C379.499 15.0452 379.453 15.2407 379.304 15.3867C379.155 15.5327 378.959 15.5748 378.868 15.4807C378.775 15.3867 378.764 15.133 378.912 14.987C379.061 14.841 379.313 14.8571 379.406 14.9511Z" fill="#55AA11"/>
<path d="M374.455 19.7734C374.548 19.8674 374.502 20.0629 374.353 20.209C374.204 20.355 374.008 20.397 373.917 20.303C373.824 20.209 373.813 19.9553 373.961 19.8093C374.111 19.6633 374.363 19.6794 374.455 19.7734Z" fill="#55AA11"/>
<path d="M354.021 27.5737C354.114 27.6677 354.068 27.8632 353.919 28.0092C353.771 28.1553 353.574 28.1973 353.483 28.1033C353.39 28.0092 353.379 27.7556 353.527 27.6096C353.677 27.4636 353.929 27.4784 354.021 27.5737Z" fill="#55AA11"/>
<path d="M377.091 19.9476C377.082 20.158 376.805 20.3164 376.473 20.3028C376.141 20.2879 375.879 20.106 375.889 19.8957C375.898 19.6853 376.18 19.397 376.513 19.4106C376.845 19.4242 377.099 19.7373 377.091 19.9476Z" fill="#55AA11"/>
<path d="M371.368 14.8943C371.696 15.3645 371.727 15.9115 371.436 16.1156C371.144 16.3198 370.64 16.107 370.312 15.6368C369.983 15.1666 369.952 14.6197 370.244 14.4155C370.535 14.2101 371.038 14.4254 371.368 14.8943Z" fill="#55AA11"/>
<path d="M364.751 17.9977C364.751 18.6473 364.658 19.4107 364.01 19.4107C363.362 19.4107 362.405 18.646 362.405 17.9977C362.405 17.348 362.93 17.0288 363.578 17.0288C364.226 17.0288 364.751 17.348 364.751 17.9977Z" fill="#55AA11"/>
<path d="M372.506 13.4254C372.506 13.7087 372.466 14.0416 372.183 14.0416C371.9 14.0416 371.483 13.7087 371.483 13.4254C371.483 13.142 371.711 13.0022 371.994 13.0022C372.278 13.0022 372.506 13.142 372.506 13.4254Z" fill="#55AA11"/>
<path d="M365.693 20.2333C365.693 20.4363 365.663 20.6751 365.461 20.6751C365.258 20.6751 364.959 20.4363 364.959 20.2333C364.959 20.0304 365.124 19.9302 365.326 19.9302C365.529 19.9302 365.693 20.0304 365.693 20.2333Z" fill="#55AA11"/>
<path d="M357.67 21.4042C357.67 21.6072 357.64 21.846 357.437 21.846C357.235 21.846 356.936 21.6072 356.936 21.4042C356.936 21.2013 357.1 21.1011 357.303 21.1011C357.505 21.1011 357.67 21.2013 357.67 21.4042Z" fill="#55AA11"/>
<path d="M356.584 25.173C356.584 25.376 356.555 25.6148 356.352 25.6148C356.149 25.6148 355.851 25.376 355.851 25.173C355.851 24.9701 356.015 24.8699 356.217 24.8699C356.42 24.8699 356.584 24.9701 356.584 25.173Z" fill="#55AA11"/>
<path d="M353.699 34.6277C353.699 35.307 353.066 35.7871 352.714 35.7871C352.362 35.7871 352.075 35.2365 352.075 34.5584C352.075 33.8804 352.761 33.0291 353.113 33.0291C353.466 33.0291 353.699 33.9484 353.699 34.6277Z" fill="#55AA11"/>
<path d="M355.185 24.1906C355.137 24.4418 354.869 24.5754 354.738 24.5494C354.607 24.5247 354.54 24.3007 354.589 24.0483C354.637 23.7971 354.95 23.5311 355.081 23.5558C355.212 23.5818 355.233 23.9381 355.185 24.1906Z" fill="#55AA11"/>
<path d="M380.822 16.029L384.417 4.94095C384.583 4.43115 385.244 4.17997 385.894 4.37795C386.545 4.57716 386.938 5.1513 386.773 5.66109C386.766 5.67966 386.759 5.70193 386.75 5.71925L382.25 16.5054C382.123 16.8085 381.704 16.9397 381.313 16.7986C380.938 16.6637 380.727 16.3247 380.822 16.029Z" fill="#55AA11"/>
<path d="M389.39 4.21815C389.675 2.45956 388.483 0.802518 386.727 0.517003C384.971 0.231488 383.317 1.42562 383.032 3.18421C382.747 4.94279 383.94 6.59986 385.695 6.88538C387.451 7.17089 389.105 5.97673 389.39 4.21815Z" fill="#55AA11"/>
<path d="M386.466 6.35501C384.688 6.35501 383.247 4.911 383.247 3.1292C383.247 2.76665 383.31 2.41895 383.42 2.09229C383.144 2.56743 382.985 3.11806 382.985 3.70705C382.985 5.48885 384.426 6.93286 386.204 6.93286C387.621 6.93286 388.82 6.01597 389.251 4.74272C388.694 5.70539 387.657 6.35501 386.466 6.35501Z" fill="#458909"/>
<path d="M389.596 32.2432L401.231 32.3087C401.766 32.3112 402.207 32.8668 402.214 33.5486C402.223 34.2304 401.796 34.7798 401.261 34.7773C401.241 34.7773 401.218 34.7761 401.198 34.7748L389.575 33.7528C389.247 33.7243 388.995 33.363 389.011 32.9472C389.028 32.5476 389.286 32.2419 389.596 32.2432Z" fill="#55AA11"/>
<path d="M405.053 36.0772C406.401 34.9149 406.553 32.8781 405.393 31.5278C404.233 30.1776 402.2 30.0252 400.852 31.1875C399.505 32.3498 399.353 34.3866 400.513 35.7368C401.673 37.0871 403.705 37.2395 405.053 36.0772Z" fill="#55AA11"/>
<path d="M400.509 34.6946C399.969 32.997 400.905 31.1818 402.6 30.641C402.946 30.5309 403.295 30.4851 403.639 30.4913C403.102 30.3725 402.531 30.3874 401.971 30.5656C400.277 31.1063 399.341 32.9215 399.88 34.6192C400.31 35.9716 401.546 36.8378 402.888 36.8637C401.802 36.6237 400.871 35.8318 400.509 34.6946Z" fill="#458909"/>
<path d="M384.514 43.2087L394.284 53.0296C394.733 53.4813 394.64 54.319 394.079 54.9018C393.515 55.4846 392.695 55.5897 392.247 55.1393C392.23 55.122 392.213 55.1022 392.196 55.0849L383.236 44.4671C382.984 44.1689 383.073 43.6516 383.433 43.3138C383.78 42.9896 384.253 42.9488 384.514 43.2087Z" fill="#55AA11"/>
<path d="M397.454 58.1534C398.868 56.5776 398.739 54.1516 397.167 52.7347C395.594 51.3179 393.172 51.4467 391.758 53.0225C390.344 54.5983 390.473 57.0243 392.045 58.4412C393.618 59.858 396.04 59.7292 397.454 58.1534Z" fill="#55AA11"/>
<path d="M391.68 54.4378C392.643 52.5509 394.952 51.8047 396.834 52.7699C397.218 52.9666 397.551 53.2215 397.835 53.5148C397.482 52.9654 396.987 52.4976 396.364 52.1784C394.481 51.2133 392.174 51.9606 391.211 53.8464C390.444 55.3485 390.763 57.118 391.874 58.265C391.159 57.1526 391.035 55.7012 391.68 54.4378Z" fill="#458909"/>
<path d="M359.927 16.8678L353.518 7.13592C353.225 6.68923 353.439 6.01363 354.001 5.62881C354.562 5.24399 355.256 5.29348 355.55 5.74141C355.561 5.75873 355.572 5.77729 355.582 5.79461L361.19 16.0462C361.348 16.3345 361.189 16.7453 360.834 16.9631C360.495 17.1722 360.098 17.1264 359.927 16.8678Z" fill="#55AA11"/>
<path d="M355.326 7.75683C356.854 6.84557 357.357 4.86567 356.448 3.33459C355.538 1.80351 353.562 1.30104 352.034 2.21231C350.505 3.12357 350.003 5.10349 350.912 6.63457C351.821 8.16564 353.797 8.6681 355.326 7.75683Z" fill="#55AA11"/>
<path d="M355.9 6.41328C354.791 7.80655 352.764 8.03422 351.375 6.92307C351.092 6.69663 350.86 6.4306 350.675 6.14106C350.874 6.65333 351.203 7.12229 351.663 7.48855C353.053 8.5997 355.079 8.37202 356.188 6.97875C357.071 5.87008 357.104 4.35802 356.38 3.22583C356.783 4.26398 356.643 5.48154 355.9 6.41328Z" fill="#458909"/>
<path d="M352.77 38.7556L341.885 42.8772C341.385 43.0665 340.775 42.7077 340.523 42.0742C340.271 41.4406 340.473 40.7749 340.973 40.5856C340.991 40.5782 341.013 40.572 341.032 40.5658L352.247 37.34C352.563 37.2497 352.927 37.4947 353.06 37.8894C353.191 38.268 353.059 38.6454 352.77 38.7556Z" fill="#55AA11"/>
<path d="M341.053 45.2244C342.697 44.5442 343.478 42.6574 342.799 41.01C342.12 39.3627 340.237 38.5787 338.594 39.2589C336.95 39.9391 336.168 41.8259 336.848 43.4732C337.527 45.1206 339.41 45.9046 341.053 45.2244Z" fill="#55AA11"/>
<path d="M341.705 40.3912C342.817 41.782 342.593 43.8125 341.207 44.9262C340.924 45.1526 340.614 45.3221 340.291 45.4397C340.834 45.358 341.362 45.139 341.822 44.7703C343.21 43.6566 343.433 41.6261 342.32 40.2353C341.435 39.1279 339.97 38.7629 338.709 39.2219C339.807 39.0561 340.962 39.4607 341.705 40.3912Z" fill="#458909"/>
<path d="M388.605 24.2315L396.63 22.2097C396.999 22.1169 397.209 21.6591 397.099 21.1864C396.99 20.715 396.602 20.4069 396.234 20.4997C396.22 20.5034 396.204 20.5083 396.19 20.512L388.336 23.1922C388.115 23.2676 388.002 23.5597 388.083 23.8442C388.162 24.1177 388.392 24.2847 388.605 24.2315Z" fill="#55AA11"/>
<path d="M397.745 18.7104C396.483 18.625 395.392 19.5803 395.305 20.8436C395.22 22.1082 396.173 23.202 397.434 23.2886C398.695 23.3753 399.788 22.4188 399.874 21.1554C399.961 19.8908 399.008 18.7958 397.745 18.7104Z" fill="#55AA11"/>
<path d="M395.728 20.6855C395.642 21.9501 396.596 23.0439 397.857 23.1306C398.113 23.1479 398.363 23.1207 398.599 23.0575C398.249 23.2308 397.852 23.3174 397.434 23.2889C396.172 23.2036 395.219 22.1085 395.305 20.8439C395.373 19.8367 396.081 19.0287 397.003 18.7837C396.294 19.1326 395.786 19.8392 395.728 20.6855Z" fill="#458909"/>
<path d="M368.476 48.1855L368.048 59.8365C368.028 60.3723 367.462 60.7954 366.781 60.7831C366.101 60.7707 365.566 60.3252 365.586 59.7907C365.587 59.7709 365.588 59.7474 365.591 59.7288L366.971 48.1199C367.01 47.7932 367.378 47.5519 367.793 47.5804C368.19 47.6076 368.487 47.8761 368.476 48.1855Z" fill="#55AA11"/>
<path d="M366.838 64.75C368.614 64.6527 369.974 63.1318 369.877 61.3529C369.78 59.574 368.262 58.2107 366.487 58.308C364.711 58.4053 363.351 59.9262 363.448 61.7051C363.545 63.484 365.063 64.8472 366.838 64.75Z" fill="#55AA11"/>
<path d="M365.691 59.0397C367.401 58.5522 369.182 59.5458 369.67 61.2595C369.769 61.6085 369.804 61.9599 369.787 62.3039C369.922 61.7718 369.925 61.1976 369.765 60.6309C369.278 58.9172 367.496 57.9236 365.786 58.4111C364.424 58.7996 363.521 60.011 363.453 61.3536C363.726 60.2746 364.546 59.3663 365.691 59.0397Z" fill="#458909"/>
<path d="M364.007 36.608C364.035 37.7501 364.384 41.1553 367.533 42.3531H367.536C368.007 42.5338 368.543 42.6637 369.151 42.728C372.757 43.1166 375.081 42.1799 376.495 40.5552C377.074 39.892 377.499 39.1174 377.798 38.2698C377.951 37.838 377.76 37.3603 377.346 37.1636C376.842 36.9236 376.083 36.5919 375.136 36.2727C374.467 36.0487 373.705 35.8273 372.876 35.6491C372.525 35.5736 372.162 35.5055 371.79 35.4474C370.96 35.3175 370.08 35.2395 369.17 35.2395C368.806 35.2395 368.44 35.2531 368.068 35.2828C367.263 35.3422 366.444 35.4721 365.619 35.6899C365.197 35.8013 364.773 35.9361 364.351 36.097C364.137 36.1762 364.003 36.3841 364.007 36.608Z" fill="#37305E"/>
<path d="M367.536 42.3514C368.007 42.532 368.543 42.6619 369.151 42.7263C372.757 43.1148 375.081 42.1781 376.495 40.5535C375.766 39.7677 374.537 38.9375 372.689 39.3149C370.659 39.7282 368.494 41.1449 367.536 42.3514Z" fill="#FE3652"/>
<path d="M372.876 35.647C373.092 36.7965 373.496 38.2999 374.098 37.9683C374.61 37.6874 374.94 36.919 375.136 36.2706C374.468 36.0466 373.706 35.8252 372.876 35.647Z" fill="white"/>
<path d="M369.169 35.2378C369.544 36.2735 370.427 38.4623 371.065 37.9229C371.66 37.423 371.774 36.1336 371.79 35.4457C370.959 35.3157 370.078 35.2378 369.169 35.2378Z" fill="white"/>
<path d="M365.618 35.6879C366.044 36.7916 366.787 38.394 367.342 37.9225C367.988 37.3781 368.064 35.9069 368.067 35.2808C367.263 35.3402 366.444 35.4713 365.618 35.6879Z" fill="white"/>
<path d="M374.139 31.5158C374.82 31.5158 375.373 30.035 375.373 28.2084C375.373 26.3817 374.82 24.9009 374.139 24.9009C373.458 24.9009 372.905 26.3817 372.905 28.2084C372.905 30.035 373.458 31.5158 374.139 31.5158Z" fill="#0B1843"/>
<path d="M372.107 25.5184C372.483 25.2684 372.813 25.1026 373.141 24.9541C373.468 24.8118 373.783 24.6893 374.102 24.5854C374.422 24.4827 374.743 24.3948 375.084 24.3132C375.434 24.2439 375.784 24.1585 376.244 24.1362C376.119 24.5681 375.867 24.922 375.555 25.1917C375.247 25.4664 374.881 25.6681 374.493 25.7906C374.107 25.9156 373.698 25.97 373.292 25.9366C372.885 25.8995 372.473 25.7943 372.107 25.5184Z" fill="#0F3145"/>
<path d="M374.48 27.8272C374.48 28.2788 374.18 28.6451 373.808 28.6451C373.438 28.6451 373.137 28.2788 373.137 27.8272C373.137 27.3755 373.438 27.0093 373.808 27.0093C374.18 27.0093 374.48 27.3755 374.48 27.8272Z" fill="white"/>
<path d="M364.13 28.3075C364.13 30.1338 364.682 31.6149 365.364 31.6149C366.045 31.6149 366.597 30.1338 366.597 28.3075C366.597 26.4811 366.045 25 365.364 25C364.682 25 364.13 26.4811 364.13 28.3075Z" fill="#0B1843"/>
<path d="M367.395 25.6175C367.019 25.3675 366.69 25.2017 366.361 25.0532C366.034 24.9097 365.719 24.7885 365.4 24.6845C365.081 24.5818 364.76 24.494 364.419 24.4123C364.068 24.343 363.718 24.2576 363.258 24.2354C363.384 24.6672 363.636 25.0211 363.947 25.2908C364.256 25.5655 364.621 25.7672 365.009 25.8897C365.396 26.0147 365.803 26.0691 366.211 26.0357C366.617 25.9986 367.029 25.8934 367.395 25.6175Z" fill="#0F3145"/>
<path d="M364.952 28.1089C364.952 28.5606 365.252 28.9268 365.623 28.9268C365.993 28.9268 366.295 28.5606 366.295 28.1089C366.295 27.6573 365.994 27.291 365.623 27.291C365.252 27.291 364.952 27.6573 364.952 28.1089Z" fill="white"/>
<path d="M389.168 148.854L381.567 146.938C381.217 146.851 381.018 146.416 381.122 145.97C381.226 145.523 381.593 145.231 381.942 145.32C381.956 145.324 381.969 145.327 381.983 145.332L389.424 147.87C389.634 147.942 389.74 148.218 389.663 148.488C389.588 148.746 389.371 148.903 389.168 148.854Z" fill="#55AA11"/>
<path d="M380.51 143.623C381.705 143.542 382.74 144.447 382.821 145.644C382.902 146.842 381.998 147.879 380.804 147.959C379.609 148.041 378.574 147.135 378.493 145.938C378.412 144.741 379.316 143.704 380.51 143.623Z" fill="#55AA11"/>
<path d="M382.421 145.494C382.503 146.692 381.599 147.729 380.405 147.809C380.162 147.825 379.926 147.799 379.702 147.74C380.033 147.903 380.41 147.986 380.805 147.959C382 147.877 382.903 146.84 382.822 145.644C382.757 144.69 382.087 143.924 381.214 143.691C381.884 144.023 382.367 144.692 382.421 145.494Z" fill="#458909"/>
<path d="M404.773 137.013L404.272 130.096C404.249 129.778 404.557 129.491 404.96 129.454C405.362 129.417 405.708 129.646 405.73 129.964C405.732 129.976 405.732 129.99 405.732 130.001L405.666 136.955C405.665 137.15 405.462 137.317 405.215 137.327C404.981 137.336 404.788 137.196 404.773 137.013Z" fill="#55AA11"/>
<path d="M406.755 128.291C407.154 129.272 406.684 130.392 405.703 130.792C404.724 131.192 403.606 130.72 403.207 129.738C402.808 128.756 403.279 127.637 404.26 127.237C405.239 126.837 406.356 127.309 406.755 128.291Z" fill="#55AA11"/>
<path d="M405.718 130.414C404.739 130.814 403.621 130.342 403.222 129.36C403.141 129.16 403.097 128.954 403.085 128.75C403.039 129.074 403.075 129.413 403.206 129.737C403.605 130.719 404.723 131.191 405.702 130.792C406.482 130.474 406.938 129.699 406.891 128.901C406.8 129.557 406.374 130.147 405.718 130.414Z" fill="#458909"/>
<path d="M394.059 167.502L388.993 175.738C388.759 176.117 388.178 176.19 387.693 175.903C387.207 175.616 387.002 175.075 387.234 174.696C387.243 174.683 387.254 174.667 387.263 174.653L392.999 166.838C393.161 166.618 393.524 166.594 393.812 166.786C394.088 166.968 394.192 167.283 394.059 167.502Z" fill="#55AA11"/>
<path d="M389.478 177.943C390.342 176.744 390.072 175.07 388.875 174.205C387.678 173.339 386.008 173.61 385.144 174.809C384.28 176.008 384.55 177.682 385.747 178.547C386.944 179.413 388.614 179.142 389.478 177.943Z" fill="#55AA11"/>
<path d="M387.617 174.196C389.051 174.545 389.931 175.993 389.583 177.43C389.513 177.723 389.394 177.99 389.241 178.231C389.556 177.902 389.792 177.49 389.908 177.015C390.256 175.579 389.376 174.131 387.942 173.782C386.8 173.505 385.654 174.008 385.057 174.95C385.693 174.283 386.656 173.963 387.617 174.196Z" fill="#458909"/>
<path d="M412.126 171.442L414.633 177.794C414.748 178.086 414.543 178.448 414.176 178.601C413.808 178.755 413.417 178.642 413.302 178.35C413.298 178.339 413.293 178.326 413.289 178.315L411.304 171.761C411.248 171.577 411.389 171.36 411.617 171.278C411.837 171.198 412.058 171.272 412.126 171.442Z" fill="#55AA11"/>
<path d="M412.831 180.223C412.167 179.419 412.28 178.227 413.083 177.562C413.886 176.896 415.075 177.01 415.74 177.814C416.404 178.618 416.29 179.81 415.488 180.476C414.685 181.141 413.496 181.029 412.831 180.223Z" fill="#55AA11"/>
<path d="M413.181 177.922C413.983 177.256 415.173 177.37 415.837 178.174C415.973 178.339 416.074 178.518 416.145 178.708C416.091 178.39 415.959 178.081 415.739 177.815C415.075 177.011 413.886 176.897 413.083 177.563C412.443 178.093 412.243 178.955 412.522 179.691C412.416 179.048 412.642 178.367 413.181 177.922Z" fill="#458909"/>
<path d="M426.616 157.007C426.616 166.914 417.681 173.528 406.659 173.528C395.637 173.528 386.702 166.914 386.702 157.007C386.702 147.099 395.637 136.231 406.659 136.231C417.681 136.231 426.616 147.099 426.616 157.007Z" fill="#82CB0F"/>
<path d="M409.788 138.937C413.094 138.937 416.237 139.783 419.079 141.236C415.671 138.206 411.355 136.233 406.661 136.233C395.639 136.233 386.704 147.101 386.704 157.008C386.704 157.979 386.79 158.918 386.956 159.822C388.606 149.323 398.199 138.937 409.788 138.937Z" fill="#C1E649"/>
<path d="M421.127 143.304C423.43 146.748 424.783 150.744 424.783 154.596C424.783 164.477 415.873 171.073 404.881 171.073C398.181 171.073 392.256 168.623 388.648 164.473C391.862 170.097 398.718 173.529 406.659 173.529C417.681 173.529 426.616 166.916 426.616 157.008C426.616 152.218 424.529 147.206 421.127 143.304Z" fill="#56BD10"/>
<path d="M412.942 140.2C412.942 141.128 411.753 141.881 410.287 141.881C408.821 141.881 407.632 141.129 407.632 140.2C407.632 139.27 408.82 137.944 410.287 137.944C411.753 137.944 412.942 139.27 412.942 140.2Z" fill="#55AA11"/>
<path d="M396.101 147.964C395.82 148.333 395.12 148.27 394.537 147.824C393.954 147.378 393.711 146.717 393.992 146.348C394.274 145.979 395.148 145.814 395.73 146.26C396.312 146.706 396.383 147.595 396.101 147.964Z" fill="#55AA11"/>
<path d="M389.118 154.622C388.99 154.789 388.673 154.761 388.409 154.559C388.144 154.358 388.035 154.058 388.162 153.89C388.289 153.723 388.685 153.647 388.95 153.85C389.213 154.052 389.245 154.455 389.118 154.622Z" fill="#55AA11"/>
<path d="M407.632 142.31C407.632 142.774 407.038 143.151 406.305 143.151C405.571 143.151 404.977 142.774 404.977 142.31C404.977 141.846 405.571 141.183 406.305 141.183C407.038 141.183 407.632 141.846 407.632 142.31Z" fill="#55AA11"/>
<path d="M396.304 142.848C396.072 143.026 395.656 142.872 395.374 142.504C395.092 142.136 395.053 141.693 395.285 141.515C395.517 141.337 396.077 141.38 396.358 141.748C396.64 142.116 396.536 142.669 396.304 142.848Z" fill="#55AA11"/>
<path d="M414.648 141.005C414.787 141.147 414.718 141.442 414.494 141.662C414.269 141.884 413.974 141.947 413.834 141.804C413.694 141.662 413.677 141.28 413.902 141.058C414.127 140.838 414.508 140.863 414.648 141.005Z" fill="#55AA11"/>
<path d="M413.996 138.631C414.084 138.72 414.04 138.904 413.9 139.043C413.759 139.182 413.574 139.221 413.486 139.132C413.398 139.043 413.388 138.803 413.529 138.664C413.67 138.527 413.91 138.542 413.996 138.631Z" fill="#55AA11"/>
<path d="M409.307 143.198C409.394 143.287 409.351 143.471 409.21 143.61C409.07 143.749 408.885 143.788 408.797 143.699C408.709 143.61 408.699 143.37 408.84 143.231C408.981 143.094 409.219 143.109 409.307 143.198Z" fill="#55AA11"/>
<path d="M389.953 150.586C390.04 150.675 389.997 150.859 389.856 150.998C389.715 151.137 389.53 151.176 389.442 151.087C389.355 150.998 389.345 150.758 389.486 150.619C389.625 150.481 389.865 150.497 389.953 150.586Z" fill="#55AA11"/>
<path d="M411.802 143.362C411.794 143.562 411.532 143.711 411.217 143.698C410.902 143.684 410.655 143.512 410.664 143.313C410.672 143.114 410.939 142.84 411.254 142.854C411.569 142.869 411.811 143.163 411.802 143.362Z" fill="#55AA11"/>
<path d="M406.382 138.576C406.694 139.021 406.723 139.539 406.447 139.733C406.17 139.927 405.693 139.724 405.382 139.279C405.071 138.833 405.041 138.316 405.318 138.122C405.594 137.928 406.071 138.132 406.382 138.576Z" fill="#55AA11"/>
<path d="M400.115 141.515C400.115 142.13 400.027 142.854 399.413 142.854C398.8 142.854 397.893 142.13 397.893 141.515C397.893 140.9 398.391 140.597 399.005 140.597C399.618 140.597 400.115 140.9 400.115 141.515Z" fill="#55AA11"/>
<path d="M407.462 137.186C407.462 137.454 407.423 137.77 407.155 137.77C406.887 137.77 406.492 137.454 406.492 137.186C406.492 136.917 406.71 136.785 406.976 136.785C407.243 136.785 407.462 136.917 407.462 137.186Z" fill="#55AA11"/>
<path d="M401.008 143.633C401.008 143.825 400.981 144.052 400.788 144.052C400.595 144.052 400.312 143.825 400.312 143.633C400.312 143.441 400.468 143.346 400.66 143.346C400.852 143.347 401.008 143.441 401.008 143.633Z" fill="#55AA11"/>
<path d="M393.407 144.742C393.407 144.934 393.38 145.16 393.187 145.16C392.996 145.16 392.711 144.934 392.711 144.742C392.711 144.55 392.867 144.455 393.059 144.455C393.251 144.455 393.407 144.55 393.407 144.742Z" fill="#55AA11"/>
<path d="M392.379 148.313C392.379 148.505 392.352 148.731 392.159 148.731C391.968 148.731 391.684 148.505 391.684 148.313C391.684 148.121 391.839 148.026 392.031 148.026C392.224 148.026 392.379 148.12 392.379 148.313Z" fill="#55AA11"/>
<path d="M389.646 157.268C389.646 157.911 389.047 158.365 388.713 158.365C388.379 158.365 388.107 157.844 388.107 157.201C388.107 156.557 388.756 155.752 389.09 155.752C389.425 155.752 389.646 156.626 389.646 157.268Z" fill="#55AA11"/>
<path d="M391.054 147.381C391.008 147.619 390.754 147.745 390.63 147.722C390.507 147.698 390.444 147.485 390.488 147.248C390.534 147.01 390.832 146.758 390.955 146.781C391.079 146.805 391.1 147.144 391.054 147.381Z" fill="#55AA11"/>
<path d="M415.338 139.651L418.744 129.149C418.901 128.666 419.527 128.427 420.143 128.615C420.76 128.803 421.133 129.348 420.976 129.83C420.97 129.849 420.962 129.869 420.955 129.886L416.692 140.103C416.572 140.39 416.174 140.515 415.804 140.38C415.448 140.251 415.248 139.931 415.338 139.651Z" fill="#55AA11"/>
<path d="M422.589 130.143C423.781 128.949 423.781 127.014 422.589 125.821C421.398 124.627 419.467 124.627 418.276 125.821C417.085 127.014 417.085 128.949 418.276 130.143C419.467 131.337 421.398 131.337 422.589 130.143Z" fill="#55AA11"/>
<path d="M420.685 130.488C419 130.488 417.634 129.119 417.634 127.431C417.634 127.087 417.693 126.758 417.798 126.45C417.538 126.901 417.386 127.422 417.386 127.98C417.386 129.667 418.752 131.036 420.436 131.036C421.777 131.036 422.914 130.167 423.322 128.962C422.795 129.873 421.812 130.488 420.685 130.488Z" fill="#458909"/>
<path d="M423.648 155.01L434.67 155.071C435.176 155.074 435.594 155.6 435.601 156.246C435.609 156.892 435.205 157.412 434.698 157.409C434.68 157.409 434.658 157.408 434.639 157.406L423.629 156.439C423.319 156.411 423.081 156.07 423.096 155.675C423.111 155.298 423.355 155.008 423.648 155.01Z" fill="#55AA11"/>
<path d="M439.244 157.093C439.662 155.457 438.677 153.793 437.045 153.374C435.413 152.956 433.751 153.943 433.334 155.578C432.916 157.213 433.901 158.878 435.533 159.296C437.165 159.714 438.827 158.728 439.244 157.093Z" fill="#55AA11"/>
<path d="M433.986 157.331C433.475 155.723 434.361 154.004 435.966 153.492C436.293 153.388 436.624 153.344 436.949 153.349C436.441 153.237 435.899 153.25 435.369 153.42C433.764 153.932 432.877 155.651 433.389 157.259C433.797 158.54 434.968 159.362 436.239 159.385C435.211 159.159 434.328 158.408 433.986 157.331Z" fill="#458909"/>
<path d="M418.836 165.396L428.09 174.699C428.515 175.127 428.429 175.92 427.895 176.472C427.363 177.024 426.586 177.124 426.16 176.697C426.144 176.681 426.127 176.662 426.112 176.645L417.624 166.588C417.386 166.304 417.47 165.815 417.812 165.495C418.14 165.188 418.589 165.15 418.836 165.396Z" fill="#55AA11"/>
<path d="M430.235 180.269C431.966 179.257 432.55 177.031 431.54 175.297C430.53 173.563 428.308 172.977 426.578 173.989C424.847 175.001 424.263 177.227 425.273 178.961C426.282 180.696 428.504 181.281 430.235 180.269Z" fill="#55AA11"/>
<path d="M425.623 176.033C426.536 174.246 428.721 173.538 430.505 174.452C430.868 174.639 431.184 174.881 431.453 175.158C431.118 174.637 430.649 174.194 430.06 173.892C428.277 172.977 426.091 173.685 425.178 175.472C424.452 176.895 424.753 178.572 425.807 179.658C425.129 178.604 425.012 177.229 425.623 176.033Z" fill="#458909"/>
<path d="M395.546 140.446L389.476 131.227C389.197 130.804 389.402 130.165 389.933 129.8C390.464 129.435 391.121 129.482 391.4 129.906C391.41 129.922 391.421 129.941 391.431 129.957L396.742 139.668C396.892 139.941 396.741 140.33 396.405 140.536C396.084 140.734 395.708 140.691 395.546 140.446Z" fill="#55AA11"/>
<path d="M389.945 132.2C391.619 132.011 392.823 130.499 392.635 128.822C392.447 127.144 390.937 125.937 389.263 126.126C387.589 126.314 386.384 127.827 386.573 129.504C386.761 131.182 388.271 132.388 389.945 132.2Z" fill="#55AA11"/>
<path d="M391.732 130.543C390.681 131.862 388.762 132.079 387.446 131.026C387.178 130.812 386.958 130.559 386.781 130.285C386.97 130.77 387.283 131.214 387.717 131.562C389.034 132.615 390.953 132.398 392.004 131.079C392.84 130.029 392.872 128.597 392.185 127.524C392.568 128.507 392.435 129.66 391.732 130.543Z" fill="#458909"/>
<path d="M388.767 161.179L378.456 165.083C377.982 165.263 377.405 164.922 377.166 164.322C376.927 163.722 377.118 163.091 377.592 162.912C377.609 162.905 377.63 162.898 377.649 162.893L388.272 159.838C388.571 159.753 388.916 159.985 389.044 160.359C389.166 160.716 389.041 161.074 388.767 161.179Z" fill="#55AA11"/>
<path d="M379.533 164.816C379.718 163.139 378.511 161.628 376.836 161.443C375.161 161.258 373.654 162.468 373.469 164.146C373.285 165.824 374.492 167.334 376.167 167.519C377.841 167.704 379.349 166.494 379.533 164.816Z" fill="#55AA11"/>
<path d="M378.286 162.729C379.339 164.046 379.127 165.969 377.813 167.025C377.545 167.24 377.251 167.4 376.946 167.511C377.46 167.433 377.961 167.226 378.395 166.877C379.71 165.822 379.921 163.899 378.867 162.581C378.029 161.532 376.641 161.187 375.447 161.621C376.488 161.463 377.581 161.846 378.286 162.729Z" fill="#458909"/>
<path d="M422.709 147.421L430.311 145.505C430.66 145.417 430.859 144.983 430.755 144.536C430.651 144.09 430.285 143.798 429.935 143.887C429.922 143.891 429.908 143.894 429.894 143.899L422.454 146.437C422.244 146.509 422.138 146.785 422.214 147.055C422.29 147.313 422.508 147.472 422.709 147.421Z" fill="#55AA11"/>
<path d="M433.373 144.66C433.543 143.473 432.721 142.371 431.535 142.2C430.35 142.029 429.25 142.853 429.08 144.041C428.909 145.229 429.731 146.33 430.917 146.501C432.102 146.672 433.202 145.848 433.373 144.66Z" fill="#55AA11"/>
<path d="M429.456 144.062C429.375 145.259 430.279 146.296 431.473 146.377C431.716 146.393 431.952 146.367 432.176 146.307C431.845 146.471 431.468 146.554 431.073 146.526C429.878 146.445 428.975 145.408 429.056 144.211C429.121 143.257 429.791 142.491 430.664 142.259C429.994 142.592 429.511 143.26 429.456 144.062Z" fill="#458909"/>
<path d="M403.643 170.111L403.238 181.147C403.22 181.654 402.682 182.055 402.038 182.043C401.393 182.03 400.887 181.61 400.905 181.102C400.907 181.084 400.908 181.061 400.91 181.043L402.218 170.046C402.255 169.737 402.603 169.508 402.996 169.535C403.373 169.564 403.653 169.818 403.643 170.111Z" fill="#55AA11"/>
<path d="M404.886 183.388C405.238 181.738 404.188 180.114 402.54 179.761C400.893 179.409 399.272 180.461 398.921 182.112C398.569 183.763 399.619 185.387 401.267 185.739C402.914 186.091 404.535 185.039 404.886 183.388Z" fill="#55AA11"/>
<path d="M401.005 180.392C402.626 179.929 404.313 180.871 404.775 182.494C404.868 182.825 404.902 183.159 404.886 183.483C405.013 182.978 405.017 182.435 404.865 181.899C404.403 180.276 402.716 179.334 401.096 179.797C399.805 180.165 398.949 181.313 398.886 182.584C399.144 181.563 399.921 180.702 401.005 180.392Z" fill="#458909"/>
<path d="M399.41 159.142C399.436 160.225 399.767 163.45 402.75 164.584H402.753C403.2 164.755 403.707 164.879 404.283 164.94C407.699 165.307 409.899 164.42 411.239 162.881C411.788 162.253 412.19 161.519 412.473 160.716C412.618 160.307 412.436 159.855 412.046 159.668C411.568 159.441 410.849 159.128 409.953 158.824C409.319 158.613 408.598 158.403 407.811 158.233C407.479 158.161 407.134 158.097 406.782 158.042C405.996 157.919 405.162 157.846 404.3 157.846C403.957 157.846 403.609 157.858 403.257 157.887C402.493 157.942 401.718 158.066 400.936 158.271C400.536 158.378 400.135 158.505 399.735 158.656C399.533 158.734 399.406 158.931 399.41 159.142Z" fill="#37305E"/>
<path d="M402.753 164.584C403.2 164.755 403.708 164.879 404.283 164.939C407.699 165.307 409.9 164.42 411.24 162.88C410.548 162.135 409.383 161.35 407.633 161.707C405.711 162.099 403.661 163.442 402.753 164.584Z" fill="#FE3652"/>
<path d="M407.81 158.234C408.015 159.323 408.398 160.747 408.969 160.433C409.453 160.167 409.766 159.44 409.952 158.825C409.318 158.613 408.597 158.403 407.81 158.234Z" fill="white"/>
<path d="M404.3 157.847C404.655 158.827 405.491 160.901 406.096 160.39C406.66 159.916 406.768 158.695 406.783 158.044C405.996 157.92 405.162 157.847 404.3 157.847Z" fill="white"/>
<path d="M400.936 158.273C401.34 159.318 402.044 160.835 402.57 160.39C403.181 159.875 403.255 158.481 403.257 157.888C402.494 157.944 401.718 158.067 400.936 158.273Z" fill="white"/>
<path d="M409.008 154.321C409.653 154.321 410.176 152.918 410.176 151.188C410.176 149.457 409.653 148.055 409.008 148.055C408.363 148.055 407.84 149.457 407.84 151.188C407.84 152.918 408.363 154.321 409.008 154.321Z" fill="#0B1843"/>
<path d="M407.084 148.64C407.44 148.402 407.752 148.246 408.063 148.105C408.373 147.97 408.672 147.855 408.973 147.755C409.276 147.657 409.58 147.574 409.903 147.498C410.235 147.432 410.566 147.352 411.002 147.331C410.883 147.74 410.644 148.075 410.349 148.33C410.056 148.591 409.709 148.782 409.343 148.898C408.976 149.017 408.589 149.068 408.204 149.036C407.821 149.001 407.43 148.901 407.084 148.64Z" fill="#0F3145"/>
<path d="M408.695 151.601C409.046 151.601 409.331 151.254 409.331 150.826C409.331 150.399 409.046 150.052 408.695 150.052C408.344 150.052 408.059 150.399 408.059 150.826C408.059 151.254 408.344 151.601 408.695 151.601Z" fill="white"/>
<path d="M400.695 154.414C401.34 154.414 401.864 153.012 401.864 151.281C401.864 149.551 401.34 148.148 400.695 148.148C400.05 148.148 399.527 149.551 399.527 151.281C399.527 153.012 400.05 154.414 400.695 154.414Z" fill="#0B1843"/>
<path d="M402.619 148.734C402.264 148.496 401.951 148.34 401.64 148.199C401.33 148.064 401.031 147.949 400.73 147.849C400.427 147.751 400.124 147.668 399.8 147.592C399.468 147.526 399.137 147.446 398.701 147.425C398.821 147.834 399.059 148.169 399.354 148.424C399.647 148.685 399.994 148.876 400.361 148.992C400.727 149.111 401.114 149.162 401.498 149.13C401.882 149.094 402.274 148.994 402.619 148.734Z" fill="#0F3145"/>
<path d="M400.941 151.868C401.293 151.868 401.577 151.521 401.577 151.093C401.577 150.666 401.293 150.319 400.941 150.319C400.59 150.319 400.305 150.666 400.305 151.093C400.305 151.521 400.59 151.868 400.941 151.868Z" fill="white"/>
<defs>
<linearGradient id="paint0_linear" x1="175.458" y1="387.605" x2="176.652" y2="367.666" gradientUnits="userSpaceOnUse">
<stop stop-color="#F6D3B3"/>
<stop offset="0.9946" stop-color="#F5BC9C"/>
</linearGradient>
<linearGradient id="paint1_linear" x1="100.069" y1="377.944" x2="122.284" y2="377.944" gradientUnits="userSpaceOnUse">
<stop stop-color="#F6D3B3"/>
<stop offset="0.9946" stop-color="#F5BC9C"/>
</linearGradient>
<linearGradient id="paint2_linear" x1="135.193" y1="64.0645" x2="135.589" y2="75.5411" gradientUnits="userSpaceOnUse">
<stop stop-color="#F6D3B3"/>
<stop offset="0.9946" stop-color="#F5BC9C"/>
</linearGradient>
<linearGradient id="paint3_linear" x1="179.204" y1="386.5" x2="163.346" y2="265.465" gradientUnits="userSpaceOnUse">
<stop stop-color="#452222"/>
<stop offset="1" stop-color="#633738"/>
</linearGradient>
<linearGradient id="paint4_linear" x1="112.913" y1="391.433" x2="122.275" y2="251.927" gradientUnits="userSpaceOnUse">
<stop stop-color="#452222"/>
<stop offset="1" stop-color="#633A38"/>
</linearGradient>
<linearGradient id="paint5_linear" x1="151.698" y1="138.729" x2="143.069" y2="143.735" gradientUnits="userSpaceOnUse">
<stop stop-color="#F6D3B3"/>
<stop offset="0.9946" stop-color="#F5BC9C"/>
</linearGradient>
<linearGradient id="paint6_linear" x1="144.836" y1="158.471" x2="140.664" y2="150.713" gradientUnits="userSpaceOnUse">
<stop stop-color="#F6D3B3"/>
<stop offset="1" stop-color="#FBECDD"/>
</linearGradient>
<linearGradient id="paint7_linear" x1="138.056" y1="20.8188" x2="130.667" y2="73.9877" gradientUnits="userSpaceOnUse">
<stop stop-color="#F6D3B3"/>
<stop offset="0.9946" stop-color="#F5BC9C"/>
</linearGradient>
<linearGradient id="paint8_linear" x1="138.056" y1="20.8188" x2="130.667" y2="73.9877" gradientUnits="userSpaceOnUse">
<stop stop-color="#F6D3B3"/>
<stop offset="0.9946" stop-color="#F5BC9C"/>
</linearGradient>
</defs>
</svg>
